<svg xmlns="http://www.w3.org/2000/svg" version="1.1" xmlns:xlink="http://www.w3.org/1999/xlink" xmlns:svgjs="http://svgjs.com/svgjs" width="1440" height="560" preserveAspectRatio="none" viewBox="0 0 1440 560"><g mask="url(&quot;#SvgjsMask1000&quot;)" fill="none"><rect width="1440" height="560" x="0" y="0" fill="#0e2a47"></rect><path d="M-89.85 641.25L-89.85 641.25" stroke="#132e65" stroke-width="1.5"></path><path d="M-89.85 641.25L80.96 689.88" stroke="#132e65" stroke-width="1.5"></path><path d="M-89.85 641.25L102.26 526.63" stroke="#132e65" stroke-width="1.5"></path><path d="M-89.85 641.25L94.19 397.44" stroke="#132e65" stroke-width="1.5"></path><path d="M-89.85 641.25L232.34 695.23" stroke="#132e65" stroke-width="1.5"></path><path d="M-89.85 641.25L208.17 504.92" stroke="#132e65" stroke-width="1.5"></path><path d="M94.19 397.44L94.19 397.44" stroke="#132e65" stroke-width="1.5"></path><path d="M94.19 397.44L102.26 526.63" stroke="#132e65" stroke-width="1.5"></path><path d="M94.19 397.44L208.17 504.92" stroke="#132e65" stroke-width="1.5"></path><path d="M94.19 397.44L251.42 348.86" stroke="#132e65" stroke-width="1.5"></path><path d="M94.19 397.44L343.33 353.9" stroke="#132e65" stroke-width="1.5"></path><path d="M94.19 397.44L349.46 531.97" stroke="#132e65" stroke-width="1.5"></path><path d="M94.19 397.44L80.96 689.88" stroke="#132e65" stroke-width="1.5"></path><path d="M102.26 526.63L102.26 526.63" stroke="#132e65" stroke-width="1.5"></path><path d="M102.26 526.63L208.17 504.92" stroke="#132e65" stroke-width="1.5"></path><path d="M102.26 526.63L80.96 689.88" stroke="#132e65" stroke-width="1.5"></path><path d="M102.26 526.63L232.34 695.23" stroke="#132e65" stroke-width="1.5"></path><path d="M80.96 689.88L80.96 689.88" stroke="#132e65" stroke-width="1.5"></path><path d="M80.96 689.88L232.34 695.23" stroke="#132e65" stroke-width="1.5"></path><path d="M251.42 348.86L251.42 348.86" stroke="#132e65" stroke-width="1.5"></path><path d="M251.42 348.86L343.33 353.9" stroke="#132e65" stroke-width="1.5"></path><path d="M251.42 348.86L208.17 504.92" stroke="#132e65" stroke-width="1.5"></path><path d="M251.42 348.86L349.46 531.97" stroke="#132e65" stroke-width="1.5"></path><path d="M208.17 504.92L208.17 504.92" stroke="#132e65" stroke-width="1.5"></path><path d="M208.17 504.92L349.46 531.97" stroke="#132e65" stroke-width="1.5"></path><path d="M208.17 504.92L232.34 695.23" stroke="#132e65" stroke-width="1.5"></path><path d="M232.34 695.23L232.34 695.23" stroke="#132e65" stroke-width="1.5"></path><path d="M343.33 353.9L343.33 353.9" stroke="#132e65" stroke-width="1.5"></path><path d="M343.33 353.9L349.46 531.97" stroke="#132e65" stroke-width="1.5"></path><path d="M343.33 353.9L208.17 504.92" stroke="#132e65" stroke-width="1.5"></path><path d="M349.46 531.97L349.46 531.97" stroke="#132e65" stroke-width="1.5"></path><path d="M349.46 531.97L510.33 555.19" stroke="#132e65" stroke-width="1.5"></path><path d="M349.46 531.97L232.34 695.23" stroke="#132e65" stroke-width="1.5"></path><path d="M349.46 531.97L514.92 699.81" stroke="#132e65" stroke-width="1.5"></path><path d="M510.33 555.19L510.33 555.19" stroke="#132e65" stroke-width="1.5"></path><path d="M510.33 555.19L514.92 699.81" stroke="#132e65" stroke-width="1.5"></path><path d="M510.33 555.19L683.81 527.84" stroke="#132e65" stroke-width="1.5"></path><path d="M510.33 555.19L704.88 638.14" stroke="#132e65" stroke-width="1.5"></path><path d="M510.33 555.19L671.57 358.22" stroke="#132e65" stroke-width="1.5"></path><path d="M510.33 555.19L343.33 353.9" stroke="#132e65" stroke-width="1.5"></path><path d="M514.92 699.81L514.92 699.81" stroke="#132e65" stroke-width="1.5"></path><path d="M514.92 699.81L704.88 638.14" stroke="#132e65" stroke-width="1.5"></path><path d="M514.92 699.81L683.81 527.84" stroke="#132e65" stroke-width="1.5"></path><path d="M514.92 699.81L232.34 695.23" stroke="#132e65" stroke-width="1.5"></path><path d="M671.57 358.22L671.57 358.22" stroke="#132e65" stroke-width="1.5"></path><path d="M671.57 358.22L827.65 403.32" stroke="#132e65" stroke-width="1.5"></path><path d="M671.57 358.22L683.81 527.84" stroke="#132e65" stroke-width="1.5"></path><path d="M683.81 527.84L683.81 527.84" stroke="#132e65" stroke-width="1.5"></path><path d="M683.81 527.84L704.88 638.14" stroke="#132e65" stroke-width="1.5"></path><path d="M683.81 527.84L798.29 532.59" stroke="#132e65" stroke-width="1.5"></path><path d="M704.88 638.14L704.88 638.14" stroke="#132e65" stroke-width="1.5"></path><path d="M704.88 638.14L839.88 660.84" stroke="#132e65" stroke-width="1.5"></path><path d="M853.7 245.79L853.7 245.79" stroke="#132e65" stroke-width="1.5"></path><path d="M853.7 245.79L976.58 241.2" stroke="#132e65" stroke-width="1.5"></path><path d="M853.7 245.79L827.65 403.32" stroke="#132e65" stroke-width="1.5"></path><path d="M853.7 245.79L964.55 395.21" stroke="#132e65" stroke-width="1.5"></path><path d="M853.7 245.79L671.57 358.22" stroke="#132e65" stroke-width="1.5"></path><path d="M853.7 245.79L1001.52 81.79" stroke="#132e65" stroke-width="1.5"></path><path d="M853.7 245.79L798.29 532.59" stroke="#132e65" stroke-width="1.5"></path><path d="M827.65 403.32L827.65 403.32" stroke="#132e65" stroke-width="1.5"></path><path d="M827.65 403.32L798.29 532.59" stroke="#132e65" stroke-width="1.5"></path><path d="M827.65 403.32L964.55 395.21" stroke="#132e65" stroke-width="1.5"></path><path d="M798.29 532.59L798.29 532.59" stroke="#132e65" stroke-width="1.5"></path><path d="M798.29 532.59L839.88 660.84" stroke="#132e65" stroke-width="1.5"></path><path d="M798.29 532.59L704.88 638.14" stroke="#132e65" stroke-width="1.5"></path><path d="M798.29 532.59L947.55 560.41" stroke="#132e65" stroke-width="1.5"></path><path d="M839.88 660.84L839.88 660.84" stroke="#132e65" stroke-width="1.5"></path><path d="M839.88 660.84L955.19 710.87" stroke="#132e65" stroke-width="1.5"></path><path d="M993.83 -96.16L993.83 -96.16" stroke="#132e65" stroke-width="1.5"></path><path d="M993.83 -96.16L1116.47 -69.11" stroke="#132e65" stroke-width="1.5"></path><path d="M993.83 -96.16L1001.52 81.79" stroke="#132e65" stroke-width="1.5"></path><path d="M1001.52 81.79L1001.52 81.79" stroke="#132e65" stroke-width="1.5"></path><path d="M1001.52 81.79L1114.08 97.74" stroke="#132e65" stroke-width="1.5"></path><path d="M1001.52 81.79L976.58 241.2" stroke="#132e65" stroke-width="1.5"></path><path d="M1001.52 81.79L1116.47 -69.11" stroke="#132e65" stroke-width="1.5"></path><path d="M1001.52 81.79L1274.8 58.32" stroke="#132e65" stroke-width="1.5"></path><path d="M976.58 241.2L976.58 241.2" stroke="#132e65" stroke-width="1.5"></path><path d="M976.58 241.2L964.55 395.21" stroke="#132e65" stroke-width="1.5"></path><path d="M976.58 241.2L1114.08 97.74" stroke="#132e65" stroke-width="1.5"></path><path d="M976.58 241.2L1113.44 388.96" stroke="#132e65" stroke-width="1.5"></path><path d="M964.55 395.21L964.55 395.21" stroke="#132e65" stroke-width="1.5"></path><path d="M964.55 395.21L1113.44 388.96" stroke="#132e65" stroke-width="1.5"></path><path d="M947.55 560.41L947.55 560.41" stroke="#132e65" stroke-width="1.5"></path><path d="M947.55 560.41L839.88 660.84" stroke="#132e65" stroke-width="1.5"></path><path d="M947.55 560.41L955.19 710.87" stroke="#132e65" stroke-width="1.5"></path><path d="M955.19 710.87L955.19 710.87" stroke="#132e65" stroke-width="1.5"></path><path d="M955.19 710.87L1149.39 647.99" stroke="#132e65" stroke-width="1.5"></path><path d="M955.19 710.87L798.29 532.59" stroke="#132e65" stroke-width="1.5"></path><path d="M955.19 710.87L704.88 638.14" stroke="#132e65" stroke-width="1.5"></path><path d="M1116.47 -69.11L1116.47 -69.11" stroke="#132e65" stroke-width="1.5"></path><path d="M1116.47 -69.11L1255.48 -67.28" stroke="#132e65" stroke-width="1.5"></path><path d="M1116.47 -69.11L1114.08 97.74" stroke="#132e65" stroke-width="1.5"></path><path d="M1114.08 97.74L1114.08 97.74" stroke="#132e65" stroke-width="1.5"></path><path d="M1114.08 97.74L1274.8 58.32" stroke="#132e65" stroke-width="1.5"></path><path d="M1114.08 97.74L1255.48 -67.28" stroke="#132e65" stroke-width="1.5"></path><path d="M1114.08 97.74L1283.45 249.9" stroke="#132e65" stroke-width="1.5"></path><path d="M1113.44 388.96L1113.44 388.96" stroke="#132e65" stroke-width="1.5"></path><path d="M1113.44 388.96L1239.16 401.89" stroke="#132e65" stroke-width="1.5"></path><path d="M1113.44 388.96L1153.35 528.22" stroke="#132e65" stroke-width="1.5"></path><path d="M1153.35 528.22L1153.35 528.22" stroke="#132e65" stroke-width="1.5"></path><path d="M1153.35 528.22L1149.39 647.99" stroke="#132e65" stroke-width="1.5"></path><path d="M1153.35 528.22L1282.66 559.85" stroke="#132e65" stroke-width="1.5"></path><path d="M1149.39 647.99L1149.39 647.99" stroke="#132e65" stroke-width="1.5"></path><path d="M1149.39 647.99L1267.98 695.45" stroke="#132e65" stroke-width="1.5"></path><path d="M1149.39 647.99L1282.66 559.85" stroke="#132e65" stroke-width="1.5"></path><path d="M1255.48 -67.28L1255.48 -67.28" stroke="#132e65" stroke-width="1.5"></path><path d="M1255.48 -67.28L1274.8 58.32" stroke="#132e65" stroke-width="1.5"></path><path d="M1255.48 -67.28L1426.88 -45.38" stroke="#132e65" stroke-width="1.5"></path><path d="M1274.8 58.32L1274.8 58.32" stroke="#132e65" stroke-width="1.5"></path><path d="M1283.45 249.9L1283.45 249.9" stroke="#132e65" stroke-width="1.5"></path><path d="M1283.45 249.9L1239.16 401.89" stroke="#132e65" stroke-width="1.5"></path><path d="M1283.45 249.9L1274.8 58.32" stroke="#132e65" stroke-width="1.5"></path><path d="M1283.45 249.9L1398.54 405.85" stroke="#132e65" stroke-width="1.5"></path><path d="M1283.45 249.9L1113.44 388.96" stroke="#132e65" stroke-width="1.5"></path><path d="M1239.16 401.89L1239.16 401.89" stroke="#132e65" stroke-width="1.5"></path><path d="M1239.16 401.89L1153.35 528.22" stroke="#132e65" stroke-width="1.5"></path><path d="M1239.16 401.89L1398.54 405.85" stroke="#132e65" stroke-width="1.5"></path><path d="M1282.66 559.85L1282.66 559.85" stroke="#132e65" stroke-width="1.5"></path><path d="M1282.66 559.85L1388.27 561.73" stroke="#132e65" stroke-width="1.5"></path><path d="M1267.98 695.45L1267.98 695.45" stroke="#132e65" stroke-width="1.5"></path><path d="M1267.98 695.45L1282.66 559.85" stroke="#132e65" stroke-width="1.5"></path><path d="M1267.98 695.45L1388.27 561.73" stroke="#132e65" stroke-width="1.5"></path><path d="M1267.98 695.45L1451.78 698.96" stroke="#132e65" stroke-width="1.5"></path><path d="M1267.98 695.45L1153.35 528.22" stroke="#132e65" stroke-width="1.5"></path><path d="M1426.88 -45.38L1426.88 -45.38" stroke="#132e65" stroke-width="1.5"></path><path d="M1426.88 -45.38L1539.46 67.35" stroke="#132e65" stroke-width="1.5"></path><path d="M1426.88 -45.38L1596.22 -98.45" stroke="#132e65" stroke-width="1.5"></path><path d="M1426.88 -45.38L1274.8 58.32" stroke="#132e65" stroke-width="1.5"></path><path d="M1398.54 405.85L1398.54 405.85" stroke="#132e65" stroke-width="1.5"></path><path d="M1398.54 405.85L1388.27 561.73" stroke="#132e65" stroke-width="1.5"></path><path d="M1398.54 405.85L1573.05 366.25" stroke="#132e65" stroke-width="1.5"></path><path d="M1398.54 405.85L1556.44 512.17" stroke="#132e65" stroke-width="1.5"></path><path d="M1398.54 405.85L1282.66 559.85" stroke="#132e65" stroke-width="1.5"></path><path d="M1388.27 561.73L1388.27 561.73" stroke="#132e65" stroke-width="1.5"></path><path d="M1388.27 561.73L1451.78 698.96" stroke="#132e65" stroke-width="1.5"></path><path d="M1451.78 698.96L1451.78 698.96" stroke="#132e65" stroke-width="1.5"></path><path d="M1451.78 698.96L1606.27 685.52" stroke="#132e65" stroke-width="1.5"></path><path d="M1451.78 698.96L1556.44 512.17" stroke="#132e65" stroke-width="1.5"></path><path d="M1451.78 698.96L1282.66 559.85" stroke="#132e65" stroke-width="1.5"></path><path d="M1451.78 698.96L1398.54 405.85" stroke="#132e65" stroke-width="1.5"></path><path d="M1596.22 -98.45L1596.22 -98.45" stroke="#132e65" stroke-width="1.5"></path><path d="M1596.22 -98.45L1539.46 67.35" stroke="#132e65" stroke-width="1.5"></path><path d="M1596.22 -98.45L1255.48 -67.28" stroke="#132e65" stroke-width="1.5"></path><path d="M1596.22 -98.45L1580.12 253.56" stroke="#132e65" stroke-width="1.5"></path><path d="M1596.22 -98.45L1274.8 58.32" stroke="#132e65" stroke-width="1.5"></path><path d="M1539.46 67.35L1539.46 67.35" stroke="#132e65" stroke-width="1.5"></path><path d="M1539.46 67.35L1580.12 253.56" stroke="#132e65" stroke-width="1.5"></path><path d="M1539.46 67.35L1274.8 58.32" stroke="#132e65" stroke-width="1.5"></path><path d="M1539.46 67.35L1573.05 366.25" stroke="#132e65" stroke-width="1.5"></path><path d="M1580.12 253.56L1580.12 253.56" stroke="#132e65" stroke-width="1.5"></path><path d="M1580.12 253.56L1573.05 366.25" stroke="#132e65" stroke-width="1.5"></path><path d="M1573.05 366.25L1573.05 366.25" stroke="#132e65" stroke-width="1.5"></path><path d="M1556.44 512.17L1556.44 512.17" stroke="#132e65" stroke-width="1.5"></path><path d="M1556.44 512.17L1573.05 366.25" stroke="#132e65" stroke-width="1.5"></path><path d="M1556.44 512.17L1388.27 561.73" stroke="#132e65" stroke-width="1.5"></path><path d="M1556.44 512.17L1606.27 685.52" stroke="#132e65" stroke-width="1.5"></path><path d="M1606.27 685.52L1606.27 685.52" stroke="#132e65" stroke-width="1.5"></path><path d="M1606.27 685.52L1388.27 561.73" stroke="#132e65" stroke-width="1.5"></path><path d="M1606.27 685.52L1573.05 366.25" stroke="#132e65" stroke-width="1.5"></path><path d="M1606.27 685.52L1267.98 695.45" stroke="#132e65" stroke-width="1.5"></path><circle r="5" cx="-89.85" cy="641.25" fill="#132e65"></circle><circle r="5" cx="94.19" cy="397.44" fill="#132e65"></circle><circle r="5" cx="102.26" cy="526.63" fill="#132e65"></circle><circle r="5" cx="80.96" cy="689.88" fill="#132e65"></circle><circle r="5" cx="251.42" cy="348.86" fill="#132e65"></circle><circle r="5" cx="208.17" cy="504.92" fill="#132e65"></circle><circle r="5" cx="232.34" cy="695.23" fill="#132e65"></circle><circle r="5" cx="343.33" cy="353.9" fill="#132e65"></circle><circle r="5" cx="349.46" cy="531.97" fill="#132e65"></circle><circle r="5" cx="510.33" cy="555.19" fill="#132e65"></circle><circle r="5" cx="514.92" cy="699.81" fill="#132e65"></circle><circle r="5" cx="671.57" cy="358.22" fill="#132e65"></circle><circle r="5" cx="683.81" cy="527.84" fill="#132e65"></circle><circle r="5" cx="704.88" cy="638.14" fill="#132e65"></circle><circle r="5" cx="853.7" cy="245.79" fill="#132e65"></circle><circle r="5" cx="827.65" cy="403.32" fill="#132e65"></circle><circle r="5" cx="798.29" cy="532.59" fill="#132e65"></circle><circle r="5" cx="839.88" cy="660.84" fill="#132e65"></circle><circle r="5" cx="993.83" cy="-96.16" fill="#132e65"></circle><circle r="5" cx="1001.52" cy="81.79" fill="#132e65"></circle><circle r="5" cx="976.58" cy="241.2" fill="#132e65"></circle><circle r="5" cx="964.55" cy="395.21" fill="#132e65"></circle><circle r="5" cx="947.55" cy="560.41" fill="#132e65"></circle><circle r="5" cx="955.19" cy="710.87" fill="#132e65"></circle><circle r="5" cx="1116.47" cy="-69.11" fill="#132e65"></circle><circle r="5" cx="1114.08" cy="97.74" fill="#132e65"></circle><circle r="5" cx="1113.44" cy="388.96" fill="#132e65"></circle><circle r="5" cx="1153.35" cy="528.22" fill="#132e65"></circle><circle r="5" cx="1149.39" cy="647.99" fill="#132e65"></circle><circle r="5" cx="1255.48" cy="-67.28" fill="#132e65"></circle><circle r="5" cx="1274.8" cy="58.32" fill="#132e65"></circle><circle r="5" cx="1283.45" cy="249.9" fill="#132e65"></circle><circle r="5" cx="1239.16" cy="401.89" fill="#132e65"></circle><circle r="5" cx="1282.66" cy="559.85" fill="#132e65"></circle><circle r="5" cx="1267.98" cy="695.45" fill="#132e65"></circle><circle r="5" cx="1426.88" cy="-45.38" fill="#132e65"></circle><circle r="5" cx="1398.54" cy="405.85" fill="#132e65"></circle><circle r="5" cx="1388.27" cy="561.73" fill="#132e65"></circle><circle r="5" cx="1451.78" cy="698.96" fill="#132e65"></circle><circle r="5" cx="1596.22" cy="-98.45" fill="#132e65"></circle><circle r="5" cx="1539.46" cy="67.35" fill="#132e65"></circle><circle r="5" cx="1580.12" cy="253.56" fill="#132e65"></circle><circle r="5" cx="1573.05" cy="366.25" fill="#132e65"></circle><circle r="5" cx="1556.44" cy="512.17" fill="#132e65"></circle><circle r="5" cx="1606.27" cy="685.52" fill="#132e65"></circle><path d="M237.4 494.08L237.4 494.08" stroke="hsl(228.5, 77.2%, 51.5%)" stroke-width="1.5"></path><path d="M237.4 494.08L352.24 527.36" stroke="hsl(228.5, 77.2%, 51.5%)" stroke-width="1.5"></path><path d="M237.4 494.08L246.99 659.35" stroke="hsl(228.5, 77.2%, 51.5%)" stroke-width="1.5"></path><path d="M237.4 494.08L53.6 527.46" stroke="hsl(228.5, 77.2%, 51.5%)" stroke-width="1.5"></path><path d="M237.4 494.08L357.51 704.1" stroke="hsl(228.5, 77.2%, 51.5%)" stroke-width="1.5"></path><path d="M357.51 704.1L357.51 704.1" stroke="hsl(228.5, 77.2%, 51.5%)" stroke-width="1.5"></path><path d="M357.51 704.1L246.99 659.35" stroke="hsl(228.5, 77.2%, 51.5%)" stroke-width="1.5"></path><path d="M357.51 704.1L509.02 648.46" stroke="hsl(228.5, 77.2%, 51.5%)" stroke-width="1.5"></path><path d="M357.51 704.1L352.24 527.36" stroke="hsl(228.5, 77.2%, 51.5%)" stroke-width="1.5"></path><path d="M357.51 704.1L534.12 493.55" stroke="hsl(228.5, 77.2%, 51.5%)" stroke-width="1.5"></path><path d="M357.51 704.1L61.83 682.96" stroke="hsl(228.5, 77.2%, 51.5%)" stroke-width="1.5"></path><path d="M1011.38 538.44L1011.38 538.44" stroke="hsl(228.5, 77.2%, 51.5%)" stroke-width="1.5"></path><path d="M1011.38 538.44L1100.3 516.55" stroke="hsl(228.5, 77.2%, 51.5%)" stroke-width="1.5"></path><path d="M1011.38 538.44L957.64 408.12" stroke="hsl(228.5, 77.2%, 51.5%)" stroke-width="1.5"></path><path d="M1273.46 671.87L1273.46 671.87" stroke="hsl(228.5, 77.2%, 51.5%)" stroke-width="1.5"></path><path d="M1273.46 671.87L1116.33 675.45" stroke="hsl(228.5, 77.2%, 51.5%)" stroke-width="1.5"></path><path d="M1273.46 671.87L1270.42 495.69" stroke="hsl(228.5, 77.2%, 51.5%)" stroke-width="1.5"></path><path d="M1273.46 671.87L1100.3 516.55" stroke="hsl(228.5, 77.2%, 51.5%)" stroke-width="1.5"></path><path d="M1273.46 671.87L1446.9 490.2" stroke="hsl(228.5, 77.2%, 51.5%)" stroke-width="1.5"></path><path d="M1273.46 671.87L1278.51 410.79" stroke="hsl(228.5, 77.2%, 51.5%)" stroke-width="1.5"></path><path d="M-82.79 535.21L-82.79 535.21" stroke="hsl(228.5, 77.2%, 51.5%)" stroke-width="1.5"></path><path d="M-82.79 535.21L53.6 527.46" stroke="hsl(228.5, 77.2%, 51.5%)" stroke-width="1.5"></path><path d="M-82.79 535.21L-78.67 709.07" stroke="hsl(228.5, 77.2%, 51.5%)" stroke-width="1.5"></path><path d="M-82.79 535.21L61.83 682.96" stroke="hsl(228.5, 77.2%, 51.5%)" stroke-width="1.5"></path><path d="M-82.79 535.21L237.4 494.08" stroke="hsl(228.5, 77.2%, 51.5%)" stroke-width="1.5"></path><path d="M-78.67 709.07L-78.67 709.07" stroke="hsl(228.5, 77.2%, 51.5%)" stroke-width="1.5"></path><path d="M-78.67 709.07L61.83 682.96" stroke="hsl(228.5, 77.2%, 51.5%)" stroke-width="1.5"></path><path d="M-78.67 709.07L53.6 527.46" stroke="hsl(228.5, 77.2%, 51.5%)" stroke-width="1.5"></path><path d="M-78.67 709.07L246.99 659.35" stroke="hsl(228.5, 77.2%, 51.5%)" stroke-width="1.5"></path><path d="M-78.67 709.07L237.4 494.08" stroke="hsl(228.5, 77.2%, 51.5%)" stroke-width="1.5"></path><path d="M-78.67 709.07L357.51 704.1" stroke="hsl(228.5, 77.2%, 51.5%)" stroke-width="1.5"></path><path d="M53.6 527.46L53.6 527.46" stroke="hsl(228.5, 77.2%, 51.5%)" stroke-width="1.5"></path><path d="M53.6 527.46L61.83 682.96" stroke="hsl(228.5, 77.2%, 51.5%)" stroke-width="1.5"></path><path d="M53.6 527.46L246.99 659.35" stroke="hsl(228.5, 77.2%, 51.5%)" stroke-width="1.5"></path><path d="M53.6 527.46L352.24 527.36" stroke="hsl(228.5, 77.2%, 51.5%)" stroke-width="1.5"></path><path d="M61.83 682.96L61.83 682.96" stroke="hsl(228.5, 77.2%, 51.5%)" stroke-width="1.5"></path><path d="M61.83 682.96L246.99 659.35" stroke="hsl(228.5, 77.2%, 51.5%)" stroke-width="1.5"></path><path d="M246.99 659.35L246.99 659.35" stroke="hsl(228.5, 77.2%, 51.5%)" stroke-width="1.5"></path><path d="M352.24 527.36L352.24 527.36" stroke="hsl(228.5, 77.2%, 51.5%)" stroke-width="1.5"></path><path d="M352.24 527.36L246.99 659.35" stroke="hsl(228.5, 77.2%, 51.5%)" stroke-width="1.5"></path><path d="M534.12 493.55L534.12 493.55" stroke="hsl(228.5, 77.2%, 51.5%)" stroke-width="1.5"></path><path d="M534.12 493.55L509.02 648.46" stroke="hsl(228.5, 77.2%, 51.5%)" stroke-width="1.5"></path><path d="M534.12 493.55L696.05 502.87" stroke="hsl(228.5, 77.2%, 51.5%)" stroke-width="1.5"></path><path d="M534.12 493.55L670.95 370.43" stroke="hsl(228.5, 77.2%, 51.5%)" stroke-width="1.5"></path><path d="M534.12 493.55L352.24 527.36" stroke="hsl(228.5, 77.2%, 51.5%)" stroke-width="1.5"></path><path d="M534.12 493.55L666.67 691.36" stroke="hsl(228.5, 77.2%, 51.5%)" stroke-width="1.5"></path><path d="M509.02 648.46L509.02 648.46" stroke="hsl(228.5, 77.2%, 51.5%)" stroke-width="1.5"></path><path d="M670.95 370.43L670.95 370.43" stroke="hsl(228.5, 77.2%, 51.5%)" stroke-width="1.5"></path><path d="M670.95 370.43L696.05 502.87" stroke="hsl(228.5, 77.2%, 51.5%)" stroke-width="1.5"></path><path d="M670.95 370.43L825.89 372.82" stroke="hsl(228.5, 77.2%, 51.5%)" stroke-width="1.5"></path><path d="M670.95 370.43L861.74 510.55" stroke="hsl(228.5, 77.2%, 51.5%)" stroke-width="1.5"></path><path d="M670.95 370.43L957.64 408.12" stroke="hsl(228.5, 77.2%, 51.5%)" stroke-width="1.5"></path><path d="M696.05 502.87L696.05 502.87" stroke="hsl(228.5, 77.2%, 51.5%)" stroke-width="1.5"></path><path d="M666.67 691.36L666.67 691.36" stroke="hsl(228.5, 77.2%, 51.5%)" stroke-width="1.5"></path><path d="M666.67 691.36L509.02 648.46" stroke="hsl(228.5, 77.2%, 51.5%)" stroke-width="1.5"></path><path d="M666.67 691.36L845.53 706.73" stroke="hsl(228.5, 77.2%, 51.5%)" stroke-width="1.5"></path><path d="M666.67 691.36L696.05 502.87" stroke="hsl(228.5, 77.2%, 51.5%)" stroke-width="1.5"></path><path d="M666.67 691.36L861.74 510.55" stroke="hsl(228.5, 77.2%, 51.5%)" stroke-width="1.5"></path><path d="M666.67 691.36L949.66 699.7" stroke="hsl(228.5, 77.2%, 51.5%)" stroke-width="1.5"></path><path d="M825.89 372.82L825.89 372.82" stroke="hsl(228.5, 77.2%, 51.5%)" stroke-width="1.5"></path><path d="M825.89 372.82L957.64 408.12" stroke="hsl(228.5, 77.2%, 51.5%)" stroke-width="1.5"></path><path d="M861.74 510.55L861.74 510.55" stroke="hsl(228.5, 77.2%, 51.5%)" stroke-width="1.5"></path><path d="M861.74 510.55L957.64 408.12" stroke="hsl(228.5, 77.2%, 51.5%)" stroke-width="1.5"></path><path d="M861.74 510.55L825.89 372.82" stroke="hsl(228.5, 77.2%, 51.5%)" stroke-width="1.5"></path><path d="M861.74 510.55L1011.38 538.44" stroke="hsl(228.5, 77.2%, 51.5%)" stroke-width="1.5"></path><path d="M861.74 510.55L696.05 502.87" stroke="hsl(228.5, 77.2%, 51.5%)" stroke-width="1.5"></path><path d="M861.74 510.55L845.53 706.73" stroke="hsl(228.5, 77.2%, 51.5%)" stroke-width="1.5"></path><path d="M861.74 510.55L949.66 699.7" stroke="hsl(228.5, 77.2%, 51.5%)" stroke-width="1.5"></path><path d="M845.53 706.73L845.53 706.73" stroke="hsl(228.5, 77.2%, 51.5%)" stroke-width="1.5"></path><path d="M845.53 706.73L949.66 699.7" stroke="hsl(228.5, 77.2%, 51.5%)" stroke-width="1.5"></path><path d="M957.64 408.12L957.64 408.12" stroke="hsl(228.5, 77.2%, 51.5%)" stroke-width="1.5"></path><path d="M949.66 699.7L949.66 699.7" stroke="hsl(228.5, 77.2%, 51.5%)" stroke-width="1.5"></path><path d="M949.66 699.7L1116.33 675.45" stroke="hsl(228.5, 77.2%, 51.5%)" stroke-width="1.5"></path><path d="M1131.55 251.16L1131.55 251.16" stroke="hsl(228.5, 77.2%, 51.5%)" stroke-width="1.5"></path><path d="M1131.55 251.16L1148.2 385.86" stroke="hsl(228.5, 77.2%, 51.5%)" stroke-width="1.5"></path><path d="M1131.55 251.16L1308.54 210.59" stroke="hsl(228.5, 77.2%, 51.5%)" stroke-width="1.5"></path><path d="M1131.55 251.16L1278.51 410.79" stroke="hsl(228.5, 77.2%, 51.5%)" stroke-width="1.5"></path><path d="M1131.55 251.16L957.64 408.12" stroke="hsl(228.5, 77.2%, 51.5%)" stroke-width="1.5"></path><path d="M1131.55 251.16L1268.81 38.11" stroke="hsl(228.5, 77.2%, 51.5%)" stroke-width="1.5"></path><path d="M1148.2 385.86L1148.2 385.86" stroke="hsl(228.5, 77.2%, 51.5%)" stroke-width="1.5"></path><path d="M1148.2 385.86L1278.51 410.79" stroke="hsl(228.5, 77.2%, 51.5%)" stroke-width="1.5"></path><path d="M1148.2 385.86L1100.3 516.55" stroke="hsl(228.5, 77.2%, 51.5%)" stroke-width="1.5"></path><path d="M1148.2 385.86L1270.42 495.69" stroke="hsl(228.5, 77.2%, 51.5%)" stroke-width="1.5"></path><path d="M1100.3 516.55L1100.3 516.55" stroke="hsl(228.5, 77.2%, 51.5%)" stroke-width="1.5"></path><path d="M1100.3 516.55L1116.33 675.45" stroke="hsl(228.5, 77.2%, 51.5%)" stroke-width="1.5"></path><path d="M1100.3 516.55L1270.42 495.69" stroke="hsl(228.5, 77.2%, 51.5%)" stroke-width="1.5"></path><path d="M1116.33 675.45L1116.33 675.45" stroke="hsl(228.5, 77.2%, 51.5%)" stroke-width="1.5"></path><path d="M1116.33 675.45L1011.38 538.44" stroke="hsl(228.5, 77.2%, 51.5%)" stroke-width="1.5"></path><path d="M1116.33 675.45L1270.42 495.69" stroke="hsl(228.5, 77.2%, 51.5%)" stroke-width="1.5"></path><path d="M1116.33 675.45L845.53 706.73" stroke="hsl(228.5, 77.2%, 51.5%)" stroke-width="1.5"></path><path d="M1294.63 -54.21L1294.63 -54.21" stroke="hsl(228.5, 77.2%, 51.5%)" stroke-width="1.5"></path><path d="M1294.63 -54.21L1268.81 38.11" stroke="hsl(228.5, 77.2%, 51.5%)" stroke-width="1.5"></path><path d="M1268.81 38.11L1268.81 38.11" stroke="hsl(228.5, 77.2%, 51.5%)" stroke-width="1.5"></path><path d="M1268.81 38.11L1308.54 210.59" stroke="hsl(228.5, 77.2%, 51.5%)" stroke-width="1.5"></path><path d="M1268.81 38.11L1388.11 -96.84" stroke="hsl(228.5, 77.2%, 51.5%)" stroke-width="1.5"></path><path d="M1268.81 38.11L1439.36 102.15" stroke="hsl(228.5, 77.2%, 51.5%)" stroke-width="1.5"></path><path d="M1268.81 38.11L1544.92 -41.61" stroke="hsl(228.5, 77.2%, 51.5%)" stroke-width="1.5"></path><path d="M1308.54 210.59L1308.54 210.59" stroke="hsl(228.5, 77.2%, 51.5%)" stroke-width="1.5"></path><path d="M1308.54 210.59L1439.36 102.15" stroke="hsl(228.5, 77.2%, 51.5%)" stroke-width="1.5"></path><path d="M1308.54 210.59L1416 372.74" stroke="hsl(228.5, 77.2%, 51.5%)" stroke-width="1.5"></path><path d="M1278.51 410.79L1278.51 410.79" stroke="hsl(228.5, 77.2%, 51.5%)" stroke-width="1.5"></path><path d="M1278.51 410.79L1270.42 495.69" stroke="hsl(228.5, 77.2%, 51.5%)" stroke-width="1.5"></path><path d="M1278.51 410.79L1416 372.74" stroke="hsl(228.5, 77.2%, 51.5%)" stroke-width="1.5"></path><path d="M1270.42 495.69L1270.42 495.69" stroke="hsl(228.5, 77.2%, 51.5%)" stroke-width="1.5"></path><path d="M1388.11 -96.84L1388.11 -96.84" stroke="hsl(228.5, 77.2%, 51.5%)" stroke-width="1.5"></path><path d="M1388.11 -96.84L1294.63 -54.21" stroke="hsl(228.5, 77.2%, 51.5%)" stroke-width="1.5"></path><path d="M1388.11 -96.84L1544.92 -41.61" stroke="hsl(228.5, 77.2%, 51.5%)" stroke-width="1.5"></path><path d="M1439.36 102.15L1439.36 102.15" stroke="hsl(228.5, 77.2%, 51.5%)" stroke-width="1.5"></path><path d="M1439.36 102.15L1603.73 98.77" stroke="hsl(228.5, 77.2%, 51.5%)" stroke-width="1.5"></path><path d="M1439.36 102.15L1544.92 -41.61" stroke="hsl(228.5, 77.2%, 51.5%)" stroke-width="1.5"></path><path d="M1439.36 102.15L1388.11 -96.84" stroke="hsl(228.5, 77.2%, 51.5%)" stroke-width="1.5"></path><path d="M1439.36 102.15L1294.63 -54.21" stroke="hsl(228.5, 77.2%, 51.5%)" stroke-width="1.5"></path><path d="M1416 372.74L1416 372.74" stroke="hsl(228.5, 77.2%, 51.5%)" stroke-width="1.5"></path><path d="M1416 372.74L1446.9 490.2" stroke="hsl(228.5, 77.2%, 51.5%)" stroke-width="1.5"></path><path d="M1446.9 490.2L1446.9 490.2" stroke="hsl(228.5, 77.2%, 51.5%)" stroke-width="1.5"></path><path d="M1446.9 490.2L1561.99 383.59" stroke="hsl(228.5, 77.2%, 51.5%)" stroke-width="1.5"></path><path d="M1446.9 490.2L1270.42 495.69" stroke="hsl(228.5, 77.2%, 51.5%)" stroke-width="1.5"></path><path d="M1446.9 490.2L1278.51 410.79" stroke="hsl(228.5, 77.2%, 51.5%)" stroke-width="1.5"></path><path d="M1446.9 490.2L1308.54 210.59" stroke="hsl(228.5, 77.2%, 51.5%)" stroke-width="1.5"></path><path d="M1544.92 -41.61L1544.92 -41.61" stroke="hsl(228.5, 77.2%, 51.5%)" stroke-width="1.5"></path><path d="M1544.92 -41.61L1603.73 98.77" stroke="hsl(228.5, 77.2%, 51.5%)" stroke-width="1.5"></path><path d="M1603.73 98.77L1603.73 98.77" stroke="hsl(228.5, 77.2%, 51.5%)" stroke-width="1.5"></path><path d="M1603.73 98.77L1561.99 383.59" stroke="hsl(228.5, 77.2%, 51.5%)" stroke-width="1.5"></path><path d="M1603.73 98.77L1388.11 -96.84" stroke="hsl(228.5, 77.2%, 51.5%)" stroke-width="1.5"></path><path d="M1561.99 383.59L1561.99 383.59" stroke="hsl(228.5, 77.2%, 51.5%)" stroke-width="1.5"></path><path d="M1561.99 383.59L1416 372.74" stroke="hsl(228.5, 77.2%, 51.5%)" stroke-width="1.5"></path><circle r="25" cx="237.4" cy="494.08" fill="url(#SvgjsRadialGradient1001)"></circle><circle r="25" cx="357.51" cy="704.1" fill="url(#SvgjsRadialGradient1001)"></circle><circle r="25" cx="1011.38" cy="538.44" fill="url(#SvgjsRadialGradient1001)"></circle><circle r="25" cx="1273.46" cy="671.87" fill="url(#SvgjsRadialGradient1001)"></circle><circle r="5" cx="-82.79" cy="535.21" fill="#8b9ad9"></circle><circle r="5" cx="-78.67" cy="709.07" fill="#8b9ad9"></circle><circle r="5" cx="53.6" cy="527.46" fill="#8b9ad9"></circle><circle r="5" cx="61.83" cy="682.96" fill="#8b9ad9"></circle><circle r="5" cx="246.99" cy="659.35" fill="#8b9ad9"></circle><circle r="5" cx="352.24" cy="527.36" fill="#8b9ad9"></circle><circle r="5" cx="534.12" cy="493.55" fill="#8b9ad9"></circle><circle r="5" cx="509.02" cy="648.46" fill="#8b9ad9"></circle><circle r="5" cx="670.95" cy="370.43" fill="#8b9ad9"></circle><circle r="5" cx="696.05" cy="502.87" fill="#8b9ad9"></circle><circle r="5" cx="666.67" cy="691.36" fill="#8b9ad9"></circle><circle r="5" cx="825.89" cy="372.82" fill="#8b9ad9"></circle><circle r="5" cx="861.74" cy="510.55" fill="#8b9ad9"></circle><circle r="5" cx="845.53" cy="706.73" fill="#8b9ad9"></circle><circle r="5" cx="957.64" cy="408.12" fill="#8b9ad9"></circle><circle r="5" cx="949.66" cy="699.7" fill="#8b9ad9"></circle><circle r="5" cx="1131.55" cy="251.16" fill="#8b9ad9"></circle><circle r="5" cx="1148.2" cy="385.86" fill="#8b9ad9"></circle><circle r="5" cx="1100.3" cy="516.55" fill="#8b9ad9"></circle><circle r="5" cx="1116.33" cy="675.45" fill="#8b9ad9"></circle><circle r="5" cx="1294.63" cy="-54.21" fill="#8b9ad9"></circle><circle r="5" cx="1268.81" cy="38.11" fill="#8b9ad9"></circle><circle r="5" cx="1308.54" cy="210.59" fill="#8b9ad9"></circle><circle r="5" cx="1278.51" cy="410.79" fill="#8b9ad9"></circle><circle r="5" cx="1270.42" cy="495.69" fill="#8b9ad9"></circle><circle r="5" cx="1388.11" cy="-96.84" fill="#8b9ad9"></circle><circle r="5" cx="1439.36" cy="102.15" fill="#8b9ad9"></circle><circle r="5" cx="1416" cy="372.74" fill="#8b9ad9"></circle><circle r="5" cx="1446.9" cy="490.2" fill="#8b9ad9"></circle><circle r="5" cx="1544.92" cy="-41.61" fill="#8b9ad9"></circle><circle r="5" cx="1603.73" cy="98.77" fill="#8b9ad9"></circle><circle r="5" cx="1561.99" cy="383.59" fill="#8b9ad9"></circle></g><defs><mask id="SvgjsMask1000"><rect width="1440" height="560" fill="#ffffff"></rect></mask><radialGradient id="SvgjsRadialGradient1001"><stop stop-color="#ffffff" offset="0.1"></stop><stop stop-color="#1735b3" offset="0.2"></stop><stop stop-color="rgba(23, 53, 179, 0)" offset="1"></stop></radialGradient></defs></svg>