<svg xmlns="http://www.w3.org/2000/svg" xmlns:xlink="http://www.w3.org/1999/xlink" width="454.761" height="657.407"><defs><linearGradient id="a" y1=".5" x2="1" y2=".5" gradientUnits="objectBoundingBox"><stop offset="0" stop-color="#c838e7"/><stop offset=".073" stop-color="#b536e5"/><stop offset=".305" stop-color="#8032df"/><stop offset=".521" stop-color="#562eda"/><stop offset=".716" stop-color="#382cd7"/><stop offset=".882" stop-color="#252ad5"/><stop offset="1" stop-color="#1f2ad5"/></linearGradient><linearGradient id="c" x1=".476" y1="0" x2=".462" y2="1" xlink:href="#a"/><clipPath id="b"><path d="M222.574 611.493h-196A26.554 26.554 0 010 584.917V98.576A26.554 26.554 0 0126.576 72h25.247a3.326 3.326 0 013.322 3.262v2.053a14.6 14.6 0 0014.617 14.617h110.955A13.277 13.277 0 00194 78.644v-3.322A3.326 3.326 0 01197.323 72h25.251a26.554 26.554 0 0126.576 26.576v486.341a26.553 26.553 0 01-26.576 26.576z" transform="translate(-1279 4146.582)" fill="#424256"/></clipPath></defs><g data-name="Group image"><g data-name="Group 1742" transform="translate(-545.784 -549.026)"><g data-name="Group 1741" transform="translate(441.352 231.977)"><ellipse data-name="Ellipse 387" cx="180.961" cy="104.478" rx="180.961" ry="104.478" transform="translate(150.851 737.207)" fill="#0c0f38" opacity=".2"/><path data-name="Path 23056" d="M574.1 625.752c-57.941 0-115.882-12.731-160-38.2-43.457-25.093-67.389-58.677-67.389-94.576S370.638 423.5 414.1 398.41c88.219-50.926 231.759-50.931 319.989 0 43.452 25.092 67.383 58.682 67.383 94.576s-23.932 69.484-67.378 94.571c-44.114 25.457-102.055 38.195-159.994 38.195zm-.011-258.04c-56.565 0-113.129 12.433-156.183 37.293-41 23.672-63.58 54.911-63.58 87.97s22.583 64.31 63.585 87.976c86.118 49.737 226.247 49.732 312.365.006 41-23.666 63.58-54.906 63.58-87.97s-22.577-64.3-63.585-87.981c-43.061-24.861-99.62-37.294-156.184-37.294z" transform="translate(-242.279 348.704)" fill="url(#a)"/></g><path data-name="Path 23061" d="M940.691 827.476c-27.32 27.32-68.146 30.792-91.187 7.756s-19.57-63.867 7.75-91.188 68.146-30.792 91.188-7.751 19.569 63.863-7.751 91.183z" fill="#161242" opacity=".5"/><path data-name="Path 23062" d="M856.265 647.112c-5.589 5.594-13.953 6.3-18.669 1.587s-4.008-13.08 1.587-18.669 13.953-6.308 18.674-1.587 4.002 13.074-1.592 18.669z" fill="#161242" opacity=".5"/><path data-name="Path 23063" d="M833.395 732.605c-5.6 5.6-13.953 6.308-18.674 1.587s-4-13.074 1.592-18.669 13.953-6.308 18.669-1.587 4.007 13.074-1.587 18.669z" fill="#161242" opacity=".5"/><path data-name="Path 23064" d="M837.718 675.112c-2.532 2.532-6.319 2.858-8.453.719s-1.813-5.921.719-8.452 6.319-2.853 8.453-.719 1.813 5.92-.719 8.452z" fill="#161242" opacity=".5"/><path data-name="Path 23065" d="M924.941 774.243a13.483 13.483 0 11-13.486-13.483 13.483 13.483 0 0113.484 13.483z" fill="#6ee8fc" opacity=".23"/><path data-name="Path 23066" d="M970.024 721.227a6.775 6.775 0 11-6.772-6.778 6.775 6.775 0 016.772 6.778z" fill="#c838e7" opacity=".3"/><path data-name="Path 23067" d="M894.821 652.579a14.008 14.008 0 11-14.008-14.009 14.008 14.008 0 0114.008 14.009z" fill="#6ee8fc"/><path data-name="Path 23068" d="M869.305 683.835a5.959 5.959 0 11-5.959-5.954 5.959 5.959 0 015.959 5.954z" fill="#6ee8fc"/><circle data-name="Ellipse 389" cx="10.551" cy="10.551" r="10.551" transform="translate(884.268 675.125)" fill="#6ee8fc"/><circle data-name="Ellipse 391" cx="14.735" cy="14.735" r="14.735" transform="translate(916.338 927.426)" fill="#6ee8fc" opacity=".1"/></g><g data-name="Group 6321"><path d="M122.603 572.713a39.864 39.864 0 01-39.865-39.864V211.28a2.658 2.658 0 01-2.657-2.658v-35.878a2.658 2.658 0 012.657-2.657v-10.631a2.658 2.658 0 01-2.657-2.656v-35.878a2.658 2.658 0 012.657-2.658V98.332a2.658 2.658 0 01-2.657-2.658V79.728a2.658 2.658 0 012.657-2.658V39.864A39.864 39.864 0 01122.603 0h199.984a39.863 39.863 0 0139.864 39.865v92.351a2.658 2.658 0 012.658 2.657v59.8a2.658 2.658 0 01-2.658 2.658V532.85a39.863 39.863 0 01-39.865 39.864z" fill="#302c84"/><path d="M249.503 22.589a3.986 3.986 0 013.985-3.986 3.986 3.986 0 013.987 3.986 3.987 3.987 0 01-3.986 3.986 3.986 3.986 0 01-3.986-3.986zm-42.522 1.994a1.994 1.994 0 01-1.993-1.994 1.993 1.993 0 011.994-1.993h31.226a1.993 1.993 0 011.993 1.993 1.993 1.993 0 01-1.993 1.993z" fill="#5f55a8"/><g data-name="Mask Group 6" transform="translate(1376.965 -4201.972)" clip-path="url(#b)"><g data-name="Group 6320"><path data-name="Rectangle 194" transform="translate(-1281.955 4214.717)" fill="url(#c)" d="M0 0h254.836v547.853H0z"/><g data-name="Group 1703" fill="#bed9eb"><g data-name="Group 1699"><path data-name="Path 22541" d="M-1250.366 4236.197a1.427 1.427 0 01.305.887 1.519 1.519 0 01-.652 1.344 3.769 3.769 0 01-3.555 0 1.5 1.5 0 01-.652-1.328 1.453 1.453 0 01.3-.895 1.512 1.512 0 01.813-.548 1.382 1.382 0 01-.615-.5 1.33 1.33 0 01-.227-.775 1.3 1.3 0 01.6-1.163 3.26 3.26 0 013.114 0 1.376 1.376 0 01-.251 2.425 1.532 1.532 0 01.82.553zm-1.2 1.481a.719.719 0 00.338-.652.755.755 0 00-.342-.648 1.539 1.539 0 00-.912-.244 1.576 1.576 0 00-.92.24.754.754 0 00-.342.652.72.72 0 00.338.652 2.084 2.084 0 001.839 0zm-1.719-3.712a.639.639 0 00-.285.569.631.631 0 00.285.54 1.7 1.7 0 001.6 0 .631.631 0 00.285-.54.639.639 0 00-.285-.569 1.426 1.426 0 00-.8-.19 1.441 1.441 0 00-.8.19z"/><path data-name="Path 22542" d="M-1249.26 4235.252a.675.675 0 01-.206-.5.661.661 0 01.206-.49.681.681 0 01.494-.2.66.66 0 01.483.2.667.667 0 01.2.49.682.682 0 01-.2.5.654.654 0 01-.483.206.675.675 0 01-.494-.206zm0 3.242a.674.674 0 01-.206-.495.663.663 0 01.206-.491.682.682 0 01.494-.2.661.661 0 01.483.2.669.669 0 01.2.491.681.681 0 01-.2.5.654.654 0 01-.483.207.675.675 0 01-.494-.207z"/><path data-name="Path 22543" d="M-1243.831 4235.376a1.757 1.757 0 01.668.673 1.814 1.814 0 01.231.895 1.733 1.733 0 01-.619 1.431 2.589 2.589 0 01-1.674.5 2.668 2.668 0 01-1.691-.486 1.6 1.6 0 01-.619-1.329v-.1h1.09v.049a.733.733 0 00.318.627 1.434 1.434 0 00.862.231 1.314 1.314 0 00.87-.26.883.883 0 00.31-.714.818.818 0 00-.343-.7 1.406 1.406 0 00-.854-.251 2.115 2.115 0 00-.809.165l-.4-.528 1.716-1.634h-2.483v-1.007h4.117v.5l-1.749 1.682h.017a2.027 2.027 0 011.042.256z"/><path data-name="Path 22544" d="M-1241.078 4238.511a2.333 2.333 0 01-.92-1.039 4.287 4.287 0 010-3.238 2.335 2.335 0 01.92-1.043 2.948 2.948 0 012.833 0 2.373 2.373 0 01.92 1.043 4.226 4.226 0 010 3.234 2.369 2.369 0 01-.92 1.043 2.948 2.948 0 01-2.833 0zm2.5-1.225a2.8 2.8 0 000-2.871 1.394 1.394 0 00-2.165 0 2.824 2.824 0 000 2.871 1.394 1.394 0 002.165 0z"/></g><g data-name="Group 1700"><path data-name="Rectangle 197" d="M-1082.02 4236.311h1.68v2.75h-1.68z"/><path data-name="Rectangle 198" d="M-1079.614 4235.203h1.68v3.857h-1.68z"/><path data-name="Rectangle 199" d="M-1077.208 4234.134h1.68v4.927h-1.68z"/><path data-name="Rectangle 200" d="M-1074.802 4232.912h1.68v6.149h-1.68z"/></g><g data-name="Group 1701"><path data-name="Path 22545" d="M-1069.461 4236.039a5.345 5.345 0 017.48 0l1.131-1.131a6.945 6.945 0 00-9.743 0z"/><path data-name="Path 22546" d="M-1067.957 4237.548a3.206 3.206 0 014.461 0l1.131-1.131a4.8 4.8 0 00-6.723 0z"/><path data-name="Path 22547" d="M-1066.439 4239.061a1.054 1.054 0 011.435 0l1.136-1.136a2.675 2.675 0 00-3.707 0z"/></g><g data-name="Group 1702" transform="translate(-1058.494 4233.657)"><rect data-name="Rectangle 201" width="10.694" height="4.659" rx=".831"/><rect data-name="Rectangle 202" width=".859" height="2.005" rx=".43" transform="translate(10.942 1.327)"/></g></g><g data-name="Group 1705" fill="#bed9eb"><path data-name="Path 22548" d="M-1151.176 4459.776a.478.478 0 00.508.445l10.378-.844a.48.48 0 00.434-.522l-.122-1.583q2.262-.329 4.5-.771l.387 1.533a.471.471 0 00.574.349l10.079-2.683a.486.486 0 00.339-.59l-.386-1.531q2.168-.729 4.3-1.573l.641 1.443a.469.469 0 00.624.242l9.472-4.441a.49.49 0 00.233-.641l-.649-1.461q2.006-1.1 3.965-2.314l.889 1.329a.463.463 0 00.657.124l8.577-6.062a.489.489 0 00.12-.672l-.9-1.343q1.8-1.448 3.514-2.98l1.113 1.162a.461.461 0 00.667 0l7.422-7.5a.5.5 0 00.006-.687l-1.107-1.155q1.525-1.742 2.964-3.558l1.28.937a.464.464 0 00.658-.113l6.041-8.708a.492.492 0 00-.11-.676l-1.271-.931q1.206-1.986 2.315-4.038l1.407.689a.465.465 0 00.628-.229l4.479-9.655a.492.492 0 00-.223-.646l-3.248-1.59a.468.468 0 00-.63.229l-4.477 9.655a.489.489 0 00.223.646l1.255.614q-1.084 2-2.256 3.939l-1.131-.828a.463.463 0 00-.658.113l-6.041 8.708a.492.492 0 00.11.677l1.139.834q-1.4 1.78-2.884 3.482l-.985-1.029a.461.461 0 00-.667-.006l-7.422 7.5a.492.492 0 00-.006.685l.993 1.038q-1.682 1.5-3.434 2.912l-.8-1.2a.462.462 0 00-.655-.124l-8.578 6.06a.492.492 0 00-.121.674l.8 1.2q-1.91 1.176-3.876 2.255l-.583-1.319a.465.465 0 00-.625-.241l-9.475 4.441a.49.49 0 00-.235.643l.588 1.324q-2.077.815-4.2 1.528l-.355-1.408a.472.472 0 00-.575-.349l-10.073 2.682a.486.486 0 00-.339.59l.352 1.4q-2.179.43-4.388.749l-.11-1.428a.477.477 0 00-.508-.445l-10.378.844a.481.481 0 00-.433.522l.109 1.421c-.491.008-.982.014-1.474.014-1 0-1.986-.022-2.973-.055l.132-1.417a.48.48 0 00-.423-.528l-10.364-1.021a.476.476 0 00-.514.437l-.133 1.425q-2.205-.361-4.375-.828l.373-1.383a.486.486 0 00-.329-.6l-10.032-2.854a.471.471 0 00-.58.338l-.371 1.379q-2.107-.75-4.165-1.6l.6-1.288a.491.491 0 00-.225-.646l-9.4-4.6a.466.466 0 00-.629.229l-.589 1.27q-1.943-1.114-3.826-2.321l.791-1.141a.492.492 0 00-.111-.675l-8.478-6.208a.467.467 0 00-.659.114l-.783 1.129q-1.723-1.44-3.375-2.963l.96-.97a.5.5 0 00.006-.687l-7.3-7.625a.466.466 0 00-.668 0l-.964.974q-1.456-1.722-2.831-3.516l1.118-.79a.5.5 0 00.122-.674l-5.9-8.811a.464.464 0 00-.657-.124l-1.129.8q-1.145-1.954-2.2-3.97l1.254-.588a.49.49 0 00.233-.641l-4.321-9.731a.466.466 0 00-.624-.239l-1.27.6q-.8-2.129-1.491-4.306l1.356-.36a.487.487 0 00.337-.592l-2.61-10.352a.471.471 0 00-.576-.349l-1.357.361q-.42-2.235-.735-4.508l1.4-.114a.478.478 0 00.431-.522l-.821-10.661a.473.473 0 00-.506-.444l-1.391.113c-.008-.506-.019-1.011-.019-1.52 0-1.021.022-2.037.054-3.051l1.39.137a.475.475 0 00.514-.437l.994-10.645a.482.482 0 00-.424-.53l-1.4-.138q.35-2.266.806-4.495l1.356.386a.473.473 0 00.582-.338l2.777-10.307a.487.487 0 00-.327-.6l-1.353-.384q.73-2.165 1.56-4.28l1.262.618a.469.469 0 00.631-.229l4.477-9.655a.489.489 0 00-.223-.645l-1.247-.611q1.085-2 2.262-3.933l1.118.818a.463.463 0 00.659-.114l6.041-8.708a.492.492 0 00-.111-.676l-1.106-.81q1.4-1.771 2.885-3.47l.952.994a.463.463 0 00.667 0l7.423-7.5a.493.493 0 00.006-.685l-.955-1q1.678-1.5 3.424-2.909l.775 1.157a.461.461 0 00.654.123l8.577-6.06a.493.493 0 00.122-.674l-.782-1.168q1.9-1.176 3.866-2.258l.575 1.3a.464.464 0 00.624.241l9.47-4.438a.491.491 0 00.235-.644l-.582-1.31q2.073-.817 4.193-1.532l.352 1.4a.472.472 0 00.574.349l10.079-2.684a.486.486 0 00.339-.59l-.353-1.4q2.177-.431 4.389-.754l.109 1.43a.477.477 0 00.508.446l10.378-.844a.481.481 0 00.434-.522l-.11-1.431c.489-.008.978-.019 1.469-.019 1 0 1.99.022 2.98.055l-.133 1.43a.481.481 0 00.424.53l10.364 1.021a.476.476 0 00.514-.437l.136-1.458q2.209.357 4.382.825l-.382 1.42a.485.485 0 00.329.6l10.033 2.855a.472.472 0 00.58-.338l.391-1.451q2.115.746 4.182 1.6l-.634 1.367a.491.491 0 00.225.646l9.4 4.6a.466.466 0 00.628-.229l.643-1.386q1.955 1.113 3.85 2.326l-.869 1.253a.492.492 0 00.11.675l8.478 6.208a.466.466 0 00.658-.114l.874-1.261q1.735 1.446 3.4 2.981l-1.072 1.082a.5.5 0 00-.006.687l7.3 7.625a.466.466 0 00.669 0l1.07-1.081q1.461 1.733 2.839 3.544l-1.232.871a.5.5 0 00-.122.675l5.9 8.811a.465.465 0 00.657.126l1.219-.862q1.141 1.964 2.19 3.993l-1.337.627a.491.491 0 00-.233.644l4.321 9.729a.466.466 0 00.624.239l1.312-.615q.787 2.132 1.476 4.318l-1.383.368a.487.487 0 00-.337.592l2.61 10.352a.472.472 0 00.576.349l1.363-.362q.186 1 .354 2h-5.246a88.514 88.514 0 00-28.917-51.337 84.1 84.1 0 00-55.151-20.788c-47.1 0-85.424 39.372-85.424 87.765s38.325 87.756 85.424 87.756a83.3 83.3 0 0047.7-14.98 87.509 87.509 0 0030.867-38.336l-.638-.232.027.017c-13.422 32.112-43.985 52.85-77.961 52.85-46.735 0-84.767-39.065-84.767-87.083s38.032-87.083 84.767-87.083c41.175 0 76.27 30.2 83.47 71.808v.307h6.621l-.064-.394a90.929 90.929 0 00-.432-2.451l1.486-.4a.488.488 0 00.337-.592l-2.61-10.352a.474.474 0 00-.577-.349l-1.488.4q-.711-2.229-1.532-4.416l1.407-.659a.489.489 0 00.233-.641l-4.321-9.729a.467.467 0 00-.626-.241l-1.419.665q-1.076-2.063-2.254-4.07l1.292-.914a.5.5 0 00.123-.675l-5.9-8.811a.464.464 0 00-.656-.124l-1.3.918q-1.405-1.84-2.9-3.608l1.128-1.14a.5.5 0 00.006-.687l-7.3-7.623a.462.462 0 00-.667-.006l-1.127 1.138q-.807-.745-1.632-1.473-.907-.8-1.834-1.567l.916-1.322a.493.493 0 00-.11-.674l-8.479-6.208a.466.466 0 00-.658.113l-.912 1.315q-1.937-1.241-3.926-2.381l.674-1.453a.49.49 0 00-.223-.646l-9.4-4.6a.468.468 0 00-.631.229l-.671 1.448q-2.116-.876-4.27-1.646l.415-1.538a.485.485 0 00-.328-.6l-10.042-2.851a.47.47 0 00-.58.338l-.413 1.534q-2.231-.485-4.486-.858l.148-1.579a.48.48 0 00-.424-.528l-10.364-1.021a.475.475 0 00-.514.438l-.147 1.576a88.099 88.099 0 00-3.043-.059c-.509 0-1.014.011-1.521.02l-.121-1.579a.477.477 0 00-.508-.445l-10.378.844a.48.48 0 00-.434.522l.121 1.572q-2.27.33-4.5.773l-.385-1.525a.471.471 0 00-.574-.348l-10.077 2.683a.483.483 0 00-.337.59l.385 1.526q-2.175.732-4.3 1.571l-.638-1.438a.47.47 0 00-.626-.241l-9.471 4.441a.489.489 0 00-.232.641l.645 1.452q-2.014 1.109-3.967 2.316l-.885-1.322a.463.463 0 00-.656-.124l-8.577 6.062a.491.491 0 00-.121.673l.892 1.332q-1.793 1.448-3.512 2.984l-1.11-1.155a.463.463 0 00-.667 0l-7.423 7.5a.492.492 0 00-.006.685l1.111 1.16q-1.522 1.74-2.959 3.559l-1.288-.943a.464.464 0 00-.658.114l-6.041 8.708a.492.492 0 00.111.676l1.277.935q-1.207 1.985-2.32 4.034l-1.409-.689a.465.465 0 00-.628.229l-4.479 9.655a.492.492 0 00.223.646l1.393.682q-.852 2.169-1.6 4.39l-1.483-.421a.471.471 0 00-.58.338l-2.777 10.307a.487.487 0 00.328.6l1.479.42q-.468 2.285-.827 4.61l-1.529-.151a.479.479 0 00-.516.438l-.992 10.647a.479.479 0 00.424.528l1.539.152a97.64 97.64 0 00-.056 3.115c0 .526.011 1.049.019 1.573l-1.543.125a.482.482 0 00-.434.522l.821 10.656a.479.479 0 00.508.445l1.538-.125q.321 2.331.753 4.624l-1.489.4a.487.487 0 00-.339.592l2.61 10.352a.472.472 0 00.576.349l1.492-.4q.713 2.234 1.53 4.417l-1.408.66a.489.489 0 00-.233.641l4.321 9.729a.467.467 0 00.626.241l1.421-.666q1.079 2.067 2.253 4.072l-1.293.913a.5.5 0 00-.122.674l5.9 8.811a.466.466 0 00.656.126l1.3-.922q1.408 1.841 2.9 3.607l-1.132 1.144a.5.5 0 00-.006.687l7.3 7.623a.461.461 0 00.667.006l1.137-1.147q1.694 1.563 3.463 3.039l-.923 1.332a.5.5 0 00.11.676l8.484 6.2a.466.466 0 00.658-.114l.916-1.32q1.931 1.239 3.924 2.381l-.676 1.457a.49.49 0 00.223.646l9.4 4.6a.467.467 0 00.63-.229l.668-1.439q2.111.875 4.273 1.645l-.413 1.532a.484.484 0 00.328.6l10.034 2.855a.471.471 0 00.58-.338l.412-1.529q2.225.481 4.488.85l-.148 1.582a.479.479 0 00.424.528l10.364 1.021a.474.474 0 00.514-.437l.148-1.59c1.009.034 2.02.057 3.036.057.509 0 1.018-.006 1.526-.014z"/><path data-name="Path 22549" d="M-1153.294 4288.841v-3.436a.283.283 0 00-.294-.269h-4.973a.281.281 0 00-.294.269v10.853h.682v-1.824h4.181v1.825h.682v-2.025a.236.236 0 00.016-.069v-3.436a.235.235 0 00-.016-.069v-1.749a.226.226 0 00.016-.07zm-.7 1.618h-4.181v-1.349h4.181z"/><path data-name="Path 22550" d="M-1143.078 4386.834h-5.852c-.128 0-.235.144-.235.316v2.09c0 .176.107.316.235.316h5.852c.131 0 .235-.141.235-.316v-2.09a.282.282 0 00-.235-.316zm-1.828 1.724c0 .06-.038.109-.082.109h-2.031c-.044 0-.081-.05-.081-.109v-.726c0-.059.037-.109.081-.109h2.031c.044 0 .082.05.082.109z"/><path data-name="Path 22551" d="M-1156.867 4371.177h-1.135c-.084 0-.151.108-.151.238v.911c0 .131.067.235.151.235h1.135c.084 0 .153-.1.153-.235v-.911c-.003-.131-.073-.238-.153-.238z"/><path data-name="Path 22552" d="M-1156.867 4373.549h-1.135c-.084 0-.151.107-.151.238v.911c0 .131.067.235.151.235h1.135c.084 0 .153-.1.153-.235v-.911c-.003-.125-.073-.238-.153-.238z"/><path data-name="Path 22553" d="M-1156.867 4384.226h-1.135c-.084 0-.151.107-.151.238v.911c0 .131.067.235.151.235h1.135c.084 0 .153-.1.153-.235v-.911c-.003-.13-.073-.238-.153-.238z"/><path data-name="Path 22554" d="M-1156.867 4386.426h-1.135c-.084 0-.151.107-.151.238v.911c0 .13.067.235.151.235h1.135c.084 0 .153-.1.153-.235v-.911c-.003-.129-.073-.238-.153-.238z"/><path data-name="Path 22555" d="M-1156.867 4388.534h-1.135c-.084 0-.151.107-.151.238v.911c0 .131.067.235.151.235h1.135c.084 0 .153-.1.153-.235v-.911c-.003-.131-.073-.238-.153-.238z"/><path data-name="Path 22556" d="M-1156.867 4390.768h-1.135c-.084 0-.151.107-.151.238v.911c0 .131.067.235.151.235h1.135c.084 0 .153-.1.153-.235v-.911c-.003-.131-.073-.238-.153-.238z"/><path data-name="Path 22557" d="M-1156.867 4392.926h-1.135c-.084 0-.151.107-.151.238v.911c0 .131.067.235.151.235h1.135c.084 0 .153-.1.153-.235v-.911c-.003-.13-.073-.238-.153-.238z"/><path data-name="Path 22558" d="M-1151.84 4382.527c.116 0 .21-.144.21-.321v-4.738c0-.177-.094-.321-.21-.321h-3.085c-.115 0-.209.144-.209.321v4.738c0 .177.094.321.209.321z"/><path data-name="Path 22559" d="M-1145.835 4382.527c.116 0 .21-.144.21-.321v-4.738c0-.177-.094-.321-.21-.321h-3.08c-.115 0-.209.144-.209.321v4.738c0 .177.094.321.209.321z"/><path data-name="Path 22560" d="M-1133.34 4377.145h-1.033v-2.95a10.327 10.327 0 00-3.063-1.746 13.485 13.485 0 00-2.789-.7 11.936 11.936 0 00-2.084-.116h-13.384v.667h13.782a10.946 10.946 0 016.875 2.234v2.6h-1.386c-.116 0-.21.144-.21.322v4.738c0 .178.094.322.21.322h1.386v7.4a15.147 15.147 0 01-8.005 3.571l2.379-3.6h.009v-7.373h1.052c.116 0 .21-.144.21-.322v-4.738c0-.179-.094-.322-.21-.322h-1.052v-3.229h-15.04v.667h14.373v2.563h-1.367c-.116 0-.21.144-.21.322v4.738c0 .178.094.322.21.322h1.367v7.189l-2.575 3.9-.244.029h-8.011v-2.015a.127.127 0 00-.028-.078v-1.909h1.433v-2.741h-4.754v.667h4.087v1.414h-4.206v2.588a.177.177 0 00-.016.066v2.513a.191.191 0 00.207.169h11.288v-.338l.035.329a16.152 16.152 0 009.732-4.065v-7.7h1.033c.116 0 .21-.144.21-.322v-4.738c-.001-.183-.091-.328-.211-.328zm-19.509 14.314h-2.106v-1.818h2.106z"/><path data-name="Path 22561" d="M-1156.867 4333.66h-1.135c-.084 0-.151.107-.151.238v.911c0 .131.067.235.151.235h1.135c.084 0 .153-.1.153-.235v-.911c-.003-.131-.073-.238-.153-.238z"/><path data-name="Path 22562" d="M-1156.867 4343.585h-1.135c-.084 0-.151.108-.151.238v.911c0 .131.067.235.151.235h1.135c.084 0 .153-.1.153-.235v-.911c-.003-.127-.073-.238-.153-.238z"/><path data-name="Path 22563" d="M-1156.867 4345.788h-1.135c-.084 0-.151.107-.151.238v.911c0 .131.067.235.151.235h1.135c.084 0 .153-.1.153-.235v-.911c-.003-.132-.073-.238-.153-.238z"/><path data-name="Path 22564" d="M-1156.867 4347.895h-1.135c-.084 0-.151.107-.151.238v.911c0 .131.067.235.151.235h1.135c.084 0 .153-.1.153-.235v-.911c-.003-.13-.073-.238-.153-.238z"/><path data-name="Path 22565" d="M-1156.867 4350.13h-1.135c-.084 0-.151.107-.151.238v.911c0 .131.067.235.151.235h1.135c.084 0 .153-.1.153-.235v-.911c-.003-.131-.073-.238-.153-.238z"/><path data-name="Path 22566" d="M-1156.867 4352.288h-1.135c-.084 0-.151.107-.151.238v.911c0 .13.067.235.151.235h1.135c.084 0 .153-.1.153-.235v-.911c-.003-.131-.073-.238-.153-.238z"/><path data-name="Path 22567" d="M-1155.63 4341.647h1.76c.066 0 .119-.124.119-.277v-4.082c0-.153-.054-.277-.119-.277h-1.76c-.066 0-.119.124-.119.277v4.082c-.001.157.049.277.119.277z"/><path data-name="Path 22568" d="M-1152.089 4341.699h3.135a.252.252 0 00.211-.277v-4.08a.252.252 0 00-.211-.277h-3.135a.252.252 0 00-.213.277v4.082a.251.251 0 00.213.275z"/><path data-name="Path 22569" d="M-1147.273 4341.699h3.133a.251.251 0 00.213-.277v-4.08a.252.252 0 00-.213-.277h-3.133a.252.252 0 00-.213.277v4.082a.251.251 0 00.213.275z"/><path data-name="Path 22570" d="M-1152.803 4252.578c-60.4 0-109.364 50.093-109.364 111.883s48.963 111.883 109.364 111.883 109.358-50.093 109.358-111.883-48.964-111.883-109.358-111.883zm100.233 144.185l-3.778-1.89h-25.575l-10.706 8.694-.043.034-.028.044a73.349 73.349 0 01-12.4 14.993l-.578-.732a.321.321 0 00-.459-.05l-5.32 4.406a.337.337 0 00-.046.466l.587.742a69.982 69.982 0 01-32.787 13.33v-3.286h3.407a2.254 2.254 0 001.239-.376v.488h.639a5.457 5.457 0 00.771-.112 69.684 69.684 0 0044.008-32.421l10.015-8.64h27.973l3.79 1.893q-.336 1.211-.709 2.417zm-49.214 25.3l.581.594a75.154 75.154 0 01-48.03 20.3v-9.451h2.11v7.16l.352-.028a74.266 74.266 0 0051.132-27.026l1.661 1.327q-.955 1.164-1.942 2.284l-.566-.582a.325.325 0 00-.462 0l-4.836 4.951a.334.334 0 000 .476zm-48.2 9.685a.589.589 0 01-.581-.594v-18.944a.927.927 0 00-.921-.936h-8.765a.93.93 0 00-.924.936v18.949a.587.587 0 01-.578.594h-9.684a.591.591 0 01-.578-.594v-18.949a.924.924 0 00-.918-.936h-.028c-.144 0-13.734.319-22.274-1.055a.923.923 0 01-.734-1.1l2.046-10.778a.914.914 0 01.893-.748h10.792a.938.938 0 00.924-.945v-66.47a.935.935 0 00-.924-.942h-14.1a.586.586 0 01-.581-.6v-9.586a.586.586 0 01.581-.594h23.639a.936.936 0 00.924-.945v-19.935a.588.588 0 01.581-.6h9.682a.586.586 0 01.572.6v19.934a.936.936 0 00.924.945h8.77a.933.933 0 00.921-.945v-19.934a.588.588 0 01.581-.6h9.682a.592.592 0 01.581.6v19.934a.93.93 0 00.924.945h3.606a31.687 31.687 0 0111.033 2.134 24.839 24.839 0 0110.6 8.75c2.383 3.389 4.215 10.08 2.71 16.877a17.12 17.12 0 01-8.473 11.839l-.07.044a.949.949 0 00.278 1.7c.122.032 11.1 2.667 14.637 13.5 1.7 5.2 2.878 16.107-3.249 24.779a27.158 27.158 0 01-12.034 9.194 59.32 59.32 0 01-19.338 3.993.933.933 0 00-.872.936v18.949a.586.586 0 01-.572.594zm-2.3-16.793v2.206h-7.179v-2.206zm-7.179-.663v-1.262h7.179v1.27zm7.179 3.536v2.272h-7.179v-2.263zm0 2.929v2.115h-7.179v-2.115zm0 2.782v2.161h-7.179v-2.156zm0 2.823v2.2h-7.179v-2.2zm0 2.866v1.925a2.42 2.42 0 00.015.26h-7.21a2.42 2.42 0 00.015-.26v-1.925zm-52.438-8.612l-4.753-5.035a.319.319 0 00-.459-.009l-.532.526a79.224 79.224 0 011.8-105.312l.514.544a.319.319 0 00.459.01l4.925-4.863a.337.337 0 00.006-.469l-.529-.56a75.42 75.42 0 0138.026-18.548v8.318h-2.1v-5.728l-.4.078a74.749 74.749 0 00-42.628 26.281 77.63 77.63 0 000 97.225 74.685 74.685 0 0042.628 26.271l.392.088v-5.921h2.113v8.5a75.612 75.612 0 01-40-20.385l.541-.535a.337.337 0 000-.47zm34.159-127.487a71.245 71.245 0 00-24.5 11.838l-.673-.851a.319.319 0 00-.456-.047l-5.32 4.406a.338.338 0 00-.049.466l.673.851a72.677 72.677 0 00-8.418 9.179 74.79 74.79 0 00-1.655 88.738l-.814.673a.339.339 0 00-.049.469l4.307 5.439a.32.32 0 00.455.05l.823-.682a72.089 72.089 0 0035.679 22.112l.41.113v-2.383h2.11v5.1c-34.1-7.32-58.8-38.432-58.8-74.136s24.706-66.817 58.8-74.146v4.907h-2.111v-2.188zm-36.288 27.21a70.966 70.966 0 00-15.123 44.116c0 .322 0 .635.006.961v.131l6.1 6.3h16.447v.256a.432.432 0 00.468.382h.859v1.051h-.857a.429.429 0 00-.468.382v.344h-16.039l-4.961 5.082.033.175a71.23 71.23 0 0017.381 33.551 69.08 69.08 0 0029.408 18.877 2.3 2.3 0 002.16 1.562h.639v1.521a70.861 70.861 0 01-34.969-21.755l.737-.61a.337.337 0 00.046-.466l-4.3-5.442a.323.323 0 00-.459-.047l-.734.607a74.217 74.217 0 019.966-97.053l.6.757a.32.32 0 00.456.047l5.319-4.406a.34.34 0 00.049-.466l-.6-.757a70.534 70.534 0 0123.9-11.551v1.333h-.4a2.308 2.308 0 00-2.2 1.684 69.7 69.7 0 00-33.454 23.441zm11.863-3.649a62.819 62.819 0 0121.479-13.065v2.275c-.859.319-1.713.66-2.56 1.017l-.477-1a.32.32 0 00-.434-.153l-6.148 3.07a.335.335 0 00-.15.444l.477 1a60.742 60.742 0 00-9.042 6.412h.963a60.236 60.236 0 018.351-5.84l.391.823a.32.32 0 00.434.153l6.151-3.07a.335.335 0 00.15-.445l-.392-.817q1.133-.479 2.285-.911v2.363a57.744 57.744 0 00-13.826 7.742h.951a56.16 56.16 0 0112.875-7.1V4312a54.729 54.729 0 00-8.929 4.694h1.38a54.246 54.246 0 017.549-3.931v3.937h-22.833a2.327 2.327 0 00-2.3 2.35v.341a65.455 65.455 0 00-17.641 40.72l-.009.153 5.61 5.742h11.263v.144a.432.432 0 00.468.382h.859v1.1h-.858a.431.431 0 00-.468.382v.413h-13.62l-5.485-5.642a67.8 67.8 0 0126.913-52.435l.4.629a.317.317 0 00.447.1l5.738-3.815a.327.327 0 00.1-.456l-.413-.651a65.02 65.02 0 0111.844-5.477v2.247a63.571 63.571 0 00-22.456 13.773zm7 15.91l-.04.05a48.754 48.754 0 00-6.5 9.648l-.107.219 6.369 6.525h5.225v2.607h-9.71l-5.683-5.777a50.889 50.889 0 018.953-14.887h6.454v1.615zm4.946.663v15.112h-1.453v-15.1zm-4.335 8.966v-2.25h2.23v2.25zm2.23 3.615v2.532h-2.23v-2.532zm-2.23-9.482v-3.1h2.23v3.1zm-.651 3.4v8.569l-5.815-5.949a47.273 47.273 0 015.815-8.659v6.027l.008.023zm2.894 50.471h-.061v-.961h2.154v6.556h-2.154V4395h.061a.256.256 0 00.254-.26v-4.24a.258.258 0 00-.246-.255zm-7.877-1.627l-6.307 6.449.144.229q1.5 2.347 3.209 4.528l-.523 2.751a58.319 58.319 0 01-6.745-10l5.907-6.037h14.295v2.084zm5.212 1.627v-.961h1.955v.961zm1.966 4.767v.845h-1.955V4395zm-2.67 0h.064v.845h-4.592a2.653 2.653 0 00-2.579 2.165l-.183.954a57.95 57.95 0 01-2.683-3.8l5.747-5.874h4.289v.961h-.064a.258.258 0 00-.254.26v4.231a.256.256 0 00.255.258zm12.758 26.688h-1.022v-3.438h1.022a.191.191 0 00.19-.194v-3.176a.193.193 0 00-.19-.194h-1.022v-1.621h.165c1.236 0 2.227-.013 2.866-.019v15.154a64.445 64.445 0 01-5.821-2.341v-2.359c.358.172.722.341 1.083.507v1.048a.2.2 0 00.189.2h2.539a.2.2 0 00.19-.2v-3.176a.193.193 0 00-.189-.2zm-41.169-39.558a68.564 68.564 0 006.488 16.051l-.915.607a.335.335 0 00-.095.46l3.725 5.871a.321.321 0 00.45.1l.924-.613a66.774 66.774 0 0032.6 24.3v2.312a69.36 69.36 0 01-45.978-51.654l4.524-4.628h15.768v2.087h-12.722l-4.818 4.926zm36.707 40.313a62.746 62.746 0 01-9.55-5.849h9.55zm1.924-4.193h.866v3.433h-.866a.193.193 0 00-.189.194v1.374a44.65 44.65 0 01-1.083-.51v-6.146h1.083v1.461a.191.191 0 00.188.194zm.866-3.565h-.866a.193.193 0 00-.189.194v1.049h-1.079v-1.718h-14.752l1.018.667h13.077v1.052h-11.52l.78.6a63.486 63.486 0 0010.74 6.669v2.341a66.454 66.454 0 01-25.575-21.3l.71-.472a.337.337 0 00.095-.46l-3.725-5.871a.325.325 0 00-.45-.1l-.725.482a67.548 67.548 0 01-6.353-15.669l4.353-4.459h12.462v.325a.431.431 0 00.468.382h.859v1.139h-.862a.431.431 0 00-.468.385v.191h-9.132l-4.659 4.813.064.194a65.648 65.648 0 0015.845 25.827l.073-.078a2.623 2.623 0 001.719 1.092 132.277 132.277 0 0018.084 1.1zm-30.506-51.432h8.507v2.087h-10.992l-5.216-5.332a64.813 64.813 0 0116.983-39.65v3.161a62.736 62.736 0 00-14.642 34.081l-.021.16zm.272-.667l-4.974-5.082a62 62 0 0113.985-33.037v3.546a59.993 59.993 0 00-11.486 26.857l-.03.169 5.185 5.292h5.555v.075a.431.431 0 00.468.382h.859v.892h-.862a.431.431 0 00-.468.382v.526zm9.565 23.787l-5.943 6.08.116.219a59.417 59.417 0 007.277 10.737l-.515 2.691-.04.2.037-.2a62.124 62.124 0 01-8.014-11.244l.777-.388a.338.338 0 00.15-.444l-3-6.293a.325.325 0 00-.434-.153l-.786.394c-.049-.125-.1-.247-.15-.372l4.056-4.159h5.136v.559a.429.429 0 00.468.382h.859v1.987zm.4 23.22a65.128 65.128 0 01-14.768-24.5l4.188-4.322h8.856v2h-5.4l-4.561 4.666.079.2c.079.21.168.413.251.619l-.97.485a.334.334 0 00-.15.444l3 6.293a.319.319 0 00.431.153l.988-.491a63.152 63.152 0 008.443 11.77l-.352 1.862a2.8 2.8 0 00-.036.822zm6.769-48.807v.892h-6.515v-.892zm-6.515-4.854V4355h6.515v.932zm6.515 10.6v1.1h-6.515v-1.1zm0 5.955v1.051h-6.515v-1.051zm0 5.9v1.139h-6.515v-1.139zm0 5.993v1.477h-6.515v-1.477zm.649 1.477v-1.477h.743a.429.429 0 00.468-.382v-.563h6.032v2.422zm1.211-3.089v-2h2.071v2zm2.722 0v-2h3.31v2zm-2.722-2.666v-.191a.431.431 0 00-.468-.385h-.743v-1.139h.743a.431.431 0 00.468-.382v-.325h6.032v2.422zm0-3.089v-2.087h2.071v2.087zm2.722 0v-2.087h3.31v2.087zm-2.722-2.754v-.344a.429.429 0 00-.468-.382h-.743v-1.051h.743a.432.432 0 00.468-.382v-.256h6.032v2.416zm0-3.089v-2.07h2.071v2.081zm2.722 0v-2.07h3.31v2.081zm-2.722-2.747v-.413a.431.431 0 00-.468-.382h-.743v-1.1h.743a.432.432 0 00.468-.382v-.144h6.032v2.422zm0-3.089v-2.087h2.071v2.087zm2.722 0v-2.087h3.31v2.087zm-2.722-2.754v-.526a.431.431 0 00-.468-.382h-.743v-.892h.743a.431.431 0 00.468-.382v-.075h6.032v2.256zm0-2.923v-2.335h2.071v2.335zm2.722 0v-2.335h3.31v2.335zm-2.722-3v-.348a.429.429 0 00-.468-.382h-.743V4355h7.244v1.662zm2.722-2.341v-1.994h3.31v1.994zm-12.792-8.487l-.079.2 6.185 6.29h6.035v1.994h-11.375l-4.335-4.441a53.081 53.081 0 019.66-18.89h2.734a51.062 51.062 0 00-8.831 14.848zm-4.261 4.056l-.049.191 4.808 4.92h.545v.932h-.867a.429.429 0 00-.468.382v.348h-2.166l-4.521-4.628a55.551 55.551 0 019.6-21.049c.052 0 .1.006.159.006h2.456a54.1 54.1 0 00-9.5 18.9zm6.163-19.08a57.048 57.048 0 00-9.546 21.255l-.043.182 4.974 5.082h2.429v2.335h-5.286l-4.754-4.859a59.486 59.486 0 0110.831-25.887 2.346 2.346 0 001.438 1.909.175.175 0 01-.044-.015zm11.474-25.305l-.6-.936a.324.324 0 00-.45-.1l-5.738 3.815a.337.337 0 00-.1.46l.6.948a68.273 68.273 0 00-27.145 53.229v.137l5.864 6.04h13.893v2.081h-16.163l-5.711-5.9c0-.272-.006-.541-.006-.814 0-30.862 19.427-57.66 47.807-66.823v2.272a64.988 64.988 0 00-12.251 5.591zm33.706-5.129v2.216h-7.179v-2.216zm-7.179-.682v-2.089h7.173v2.09zm7.179 3.58v2.122h-7.179v-2.122zm0 2.8v2.384h-7.179v-2.384zm0 3.063v2.053h-7.179v-2.053zm0 2.735v2.046h-7.179v-2.046zm0 2.725v2.1h-7.179v-2.1zm16.154 100.522v-2.3c.587-.053 1.165-.116 1.734-.178v2.482zm1.734 1.621v3.274c-.578.2-1.153.41-1.734.595v-3.868zm83.262-26.018l-2.7-1.355-.624-.31-.713-.354h-30.849l-9.791 8.881-.037.034-.028.053a66.983 66.983 0 01-17.38 20.279l-.5-.757a.321.321 0 00-.453-.091l-5.671 3.915a.338.338 0 00-.089.46l.5.764a65.017 65.017 0 01-18.782 7.739v.682a65.646 65.646 0 0019.146-7.867l.59.9a.323.323 0 00.453.087l5.672-3.915a.337.337 0 00.089-.46l-.593-.9a67.625 67.625 0 0017.552-20.46l9.568-8.678h30.454l4.022 2.009q-.294 1.164-.615 2.319l-3.824-1.906h-28.365l-10.238 8.831-.04.035-.027.047a69.072 69.072 0 01-42.968 32c-.2.05-.7.172-1.282.278v-.477a2.385 2.385 0 00.41-1.342v-18.178c.5-.032.988-.069 1.475-.113v7.921c-.49.147-.979.3-1.471.438v.7a56.92 56.92 0 0013.777-5.73l1.074-.623-9.333.025v.667l6.833-.025a56.321 56.321 0 01-7.861 3.539v-7.223a55.568 55.568 0 0014.655-3.646 28.9 28.9 0 0012.768-9.792c6.531-9.238 5.265-20.92 3.49-26.365-2.949-9.035-10.608-12.809-14.089-14.092a19.187 19.187 0 007.763-12.055c1.631-7.376-.327-14.5-2.994-18.3a26.748 26.748 0 00-11.364-9.36 33.544 33.544 0 00-11.666-2.246h-2.82v-2.1h1.331v.113a.267.267 0 00.266.269h.288v1.718h.664v-1.715h2.043v1.778c.217.016.44.031.667.053v-1.831h.232a.264.264 0 00.263-.269v-3.987a.266.266 0 00-.263-.269h-.232v-.917a58.776 58.776 0 0137.161 54.918c0 .754-.015 1.524-.046 2.278l-.006.125 5.742 7.066h5.858v2.422h-8.4l-11.793-12.052h3.518a.335.335 0 00.33-.341v-2.992a.336.336 0 00-.33-.341h-3.573v-1.994h3.591a.313.313 0 00.312-.319v-2.613a.315.315 0 00-.312-.319h-3.591v-1.831h3.64a.264.264 0 00.263-.269v-1.781a.266.266 0 00-.263-.269h-3.64v-1.831h3.035a.353.353 0 00.352-.357v-3.68a.353.353 0 00-.352-.357h-.713a57.525 57.525 0 00-1.976-4.594v-1.152a.212.212 0 00-.211-.216h-2.322a.212.212 0 00-.214.216v3.408a.215.215 0 00.214.216h2.322a.214.214 0 00.211-.216v-.716q.679 1.5 1.273 3.051h-4.481a.355.355 0 00-.352.357v3.68a.356.356 0 00.352.357h2.211v1.827h-2.3a.268.268 0 00-.263.269v1.784a.266.266 0 00.263.269h2.3v1.828h-2.249a.317.317 0 00-.312.319v2.616a.315.315 0 00.312.319h2.251v1.994h-2.23a.338.338 0 00-.333.341v2.992a.338.338 0 00.333.341h2.23v.219l12.22 12.505h8.675v2.419h-4.478v-1.123a.353.353 0 00-.349-.357h-9.319a.353.353 0 00-.349.357v2.159a.35.35 0 00.349.354h9.32a.35.35 0 00.349-.354v-.375h4.478v2.425h-5.836l-8.969 8.856-.037.047-.028.05a60.972 60.972 0 01-23.477 26.074l-.453-.908a.318.318 0 00-.434-.144l-6.1 3.177a.337.337 0 00-.141.447l.447.9a58.636 58.636 0 01-9.174 3.167v.67a59.6 59.6 0 009.449-3.283l.462.923a.321.321 0 00.437.144l6.1-3.176a.337.337 0 00.141-.448l-.462-.929a60.013 60.013 0 001.741-1.089 61.89 61.89 0 0022.021-25.18l8.739-8.634h5.574v2.411h-3.937l-9.339 8.9-.037.041-.028.044a63.17 63.17 0 01-40.86 32.49v.692a63.878 63.878 0 0041.411-32.812l9.11-8.687h33.045l4.1 2.047c.024-.11.052-.222.076-.332q-.294 1.366-.631 2.729zm-85.544-79.184v2.387h-1.331v-2.387zm-1.331-.679v-3.092c.633.188 1.257.394 1.884.594v2.1h-.288a.269.269 0 00-.266.269v.128zm2.548-.4v-1.9c.688.228 1.37.46 2.043.714v1.183zm43.142 68.519v.807c0 .072-.04.131-.086.131h-2.26c-.049 0-.086-.059-.086-.131v-.807c0-.075.037-.131.086-.131h2.26c.048 0 .087.058.087.134zm21.473-.482v2.632l-8.849-8.5h2.741zm-3.7-5.84h2.273l1.423 1.368v2.181zm3.7 10.568v2.062h-1.628l-10.458-9.5v-3.164h.419zm-4.035 2.062h-4.772l-3.279-3.154v-4.585zm24.45 2.369l-4.1-2.047h-15.264v-2.416h15.873l3.995 2c-.163.824-.325 1.647-.5 2.467zm.627-3.145l-3.97-1.981h-16.021v-2.424h16.313l4.092 2.046a96.2 96.2 0 01-.412 2.362zm.523-3.048l-4.053-2.022h-16.461v-2.415h16.928l3.937 1.962c.031-.232.058-.463.086-.7l-3.875-1.934h-17.076v-2.419h5.778v.745a.33.33 0 00.327.335h8.146a.33.33 0 00.327-.335v-.745h2.784l3.888 1.94q-.294 2.809-.734 5.592zm.8-6.293l-2.471-1.236-.538-.269-.8-.4h-2.931v-.785a.332.332 0 00-.327-.335h-8.142a.332.332 0 00-.327.335v.788h-5.778v-1.643h-14.251v1.643h-5.549l-5.39-6.628a58.57 58.57 0 00.043-2.175c0-27.448-18.292-50.619-43.066-57.413v-2.285a59.87 59.87 0 0136.918 28.321l-.875.454a.337.337 0 00-.141.447l3.108 6.237a.316.316 0 00.434.147l.85-.444a63.387 63.387 0 014.867 22.964v.1l5.567 7.855h34.78l4.2 2.093c.018-.238.037-.476.052-.714l-2.811-1.4-.453-.225-.838-.416h-34.6l-5.255-7.417a63.3 63.3 0 00-4.983-23.111l.948-.494a.337.337 0 00.141-.448l-3.1-6.237a.319.319 0 00-.438-.144l-.954.494a62.374 62.374 0 00-9.923-12.909 60.183 60.183 0 00-27.49-15.807v-2.191c25.759 6.544 45.651 29.486 47.761 57.551l.006.1 5.588 8.193h20.635v.823a.329.329 0 00.327.335h8.146a.329.329 0 00.327-.335v-.823h3.024l4.114 2.053c.012-.241.006-.488.018-.733l-3.977-1.984h-3.178v-.713a.331.331 0 00-.327-.335h-8.15a.332.332 0 00-.327.335v.713h-20.293l-5.295-7.761a65.449 65.449 0 00-20.127-42.513 62.976 62.976 0 00-28.276-15.622v-2.222a65.856 65.856 0 0137.976 25.7l-.728.482a.338.338 0 00-.1.46l3.726 5.874a.327.327 0 00.45.1l.737-.491a67.907 67.907 0 018.161 25.132l.009.088 5.9 8.355h29.91l3.955 1.975c.006-.244.015-.485.019-.732l-3.828-1.921h-29.708l-5.613-7.936a68.593 68.593 0 00-8.248-25.328l.905-.6a.337.337 0 00.095-.457l-3.73-5.879a.322.322 0 00-.45-.1l-.915.607a66.541 66.541 0 00-38.523-26.021v-.717a2.376 2.376 0 00-.59-1.568.048.048 0 00.012.01v-.075c27.31 6.021 48.67 28.982 53.169 57.187l.012.078 6.026 8.375h15.362v.832a.329.329 0 00.327.335h8.146a.329.329 0 00.327-.335v-.832h2.86l4.393 2.194c0-.254-.015-.5-.021-.751l-3.49-1.743-.74-.37h-3v-.7a.331.331 0 00-.327-.332h-8.148a.331.331 0 00-.327.332v.7h-15.031l-5.738-7.974a71 71 0 00-18.246-37.325 68.534 68.534 0 00-34.966-20.232c-.2-.044-1.181-.253-1.181-.253v.394a2.266 2.266 0 00-1.129-.3h-3.634v-3.1a70.588 70.588 0 0143.9 23.5l-.758.629a.335.335 0 00-.049.466l4.307 5.442a.32.32 0 00.456.047l.758-.626a73.752 73.752 0 0112.193 28.547l.015.075 6.384 8.287h24.162l4.533 2.262c-.009-.25-.009-.5-.018-.751l-3.631-1.794-.728-.363-24.006-.006-6.09-7.908a73.735 73.735 0 00-12.345-28.723l.8-.663a.341.341 0 00.046-.469l-4.3-5.439a.324.324 0 00-.459-.05l-.814.676q-2.125-2.4-4.466-4.644a70.716 70.716 0 00-40.172-19.193l-.367-.044v3.852h-2.11v-6.247c32.063 2.789 58.473 26.171 65.79 58.286l.022.081 6.7 7.958.1.116h21.492l4.423 2.209c-.015-.26-.04-.513-.058-.77l-2.882-1.439-1.364-.682h-21.312l-6.491-7.711a76.293 76.293 0 00-23.825-40.279 73.168 73.168 0 00-42.9-18.473l-.352-.032v6.979h-2.11v-9.263a76.129 76.129 0 0148.93 21.315l-.566.557a.344.344 0 00-.009.472l4.753 5.032a.32.32 0 00.462.009l.575-.569a78.542 78.542 0 0116.567 31.6l.021.081 7.286 7.871h18.751l4.286 2.141c-.024-.257-.034-.517-.058-.77l-3.166-1.58-.911-.457-18.617-.006-6.977-7.536a80.372 80.372 0 00-16.662-31.858l.78-.773a.336.336 0 00.009-.466l-4.754-5.039a.322.322 0 00-.462-.006l-.771.76q-2.042-1.971-4.221-3.793a75.747 75.747 0 00-45.568-17.679l-.346-.016v9.98a2.243 2.243 0 00-1.26.485 2.38 2.38 0 00-.8 1.208h-7.363a2.3 2.3 0 00-2.2-1.7h-.315v-.241h2.172v-.681h-2.172v-2.25h2.172v-.682h-2.172v-2.188h2.172v-.68h-2.172v-2.047h2.172v-.679h-2.836v9.448h-2.1v-9.11l-.385.069a76.693 76.693 0 00-38.845 18.7l-.74-.785a.319.319 0 00-.459-.006l-4.922 4.863a.337.337 0 00-.009.469l.737.779q-1.157 1.258-2.264 2.569a80.538 80.538 0 000 103.384c.147.178.3.35.45.526l-.765.757a.333.333 0 00-.009.466l4.753 5.038a.319.319 0 00.459.006l.768-.757a76.791 76.791 0 0040.845 20.557l.385.059v-9.291h1.915v9.623h2.823v-.667h-2.172v-3.036h2.172v-.667h-2.172v-2.544h2.224v-.663h-2.224v-2.047h.281a2.3 2.3 0 002.111-1.427h7.549a2.3 2.3 0 002.113 1.427h.086v10.155l.346-.016a75.129 75.129 0 0034.418-9.936 78.093 78.093 0 0014.368-10.6l.823.839a.313.313 0 00.456 0l4.838-4.956a.334.334 0 000-.469l-.82-.839a79.462 79.462 0 005.949-7.561l-.532-.41c-.407.588-.823 1.17-1.242 1.743l-2.01-1.605a.222.222 0 00-.318.041l-2.239 2.926a73.626 73.626 0 01-50.609 27.11v-6.428h2.11v4.04l.367-.05a70.578 70.578 0 0033.485-13.519l.645.817a.32.32 0 00.456.05l5.317-4.409a.335.335 0 00.049-.466l-.652-.823a74.079 74.079 0 0012.508-15.106l10.486-8.509h25.187l3.741 1.868a106.913 106.913 0 01-39.857 55.2c-47.581 34-113.092 22.1-146.324-26.578s-21.6-115.7 25.976-149.7 113.093-22.1 146.327 26.582a108.833 108.833 0 0118.8 66.907q-.129 2.683-.391 5.355z"/><path data-name="Path 22571" d="M-1157.766 4261.288l.219 5.123 1.28-.056-.272-6.393-2.56.113.053 1.267z"/><path data-name="Path 22572" d="M-1154.73 4259.838l-.116 6.4 6.387.119.119-6.4zm5.013 5.223l-3.824-.072.069-3.859 3.827.072z"/><path data-name="Path 22573" d="M-1217.872 4285.779l3.283 3.931.983-.826-4.093-4.9-1.965 1.652.814.973z"/><path data-name="Path 22574" d="M-1201.006 4273.85l2.432 4.509 1.127-.61-3.032-5.63-2.253 1.224.6 1.117z"/><path data-name="Path 22575" d="M-1160.899 4260.198l-6.353.67.667 6.365 6.353-.673zm-4.544 5.636l-.4-3.837 3.805-.4.4 3.84z"/><path data-name="Path 22576" d="M-1221.07 4288.693l3.446 3.787.945-.867-4.3-4.725-1.89 1.734.851.939z"/><path data-name="Path 22577" d="M-1223.343 4289.968l-4.444 4.61 4.582 4.45 4.441-4.61zm.119 7.251l-2.763-2.682 2.663-2.763 2.76 2.685z"/><path data-name="Path 22578" d="M-1146.518 4260.023l-.625 6.368 6.356.632.629-6.369zm4.582 5.611l-3.808-.379.379-3.84 3.808.379z"/><path data-name="Path 22579" d="M-1170.079 4262.696l.848 5.057 1.261-.213-1.055-6.309-2.529.426.21 1.252z"/><path data-name="Path 22580" d="M-1204.285 4274.31l-5.423 3.389 3.37 5.433 5.423-3.392zm-3.668 3.79l3.248-2.034 2.034 3.277-3.248 2.031z"/><path data-name="Path 22581" d="M-1185.432 4265.411l-6 2.216 2.2 6.005 6-2.216zm-4.356 2.964l3.591-1.332 1.327 3.621-3.589 1.327z"/><path data-name="Path 22582" d="M-1193.104 4268.46l-5.8 2.7 2.679 5.8 5.8-2.7zm-4.1 3.308l3.474-1.618 1.615 3.5-3.47 1.618z"/><path data-name="Path 22583" d="M-1058.711 4401.343l-4.769-1.837-.46 1.2 5.952 2.294.917-2.4-1.183-.454z"/><path data-name="Path 22584" d="M-1173.319 4262.023l-6.221 1.455 1.443 6.231 6.225-1.455zm-3.818 6.159l-.87-3.759 3.727-.873.87 3.758z"/><path data-name="Path 22585" d="M-1211.193 4278.884l-5.138 3.815 3.79 5.145 5.135-3.812zm-3.355 4.071l3.076-2.284 2.284 3.1-3.076 2.281z"/><path data-name="Path 22586" d="M-1182.132 4265.66l1.465 4.913 1.227-.369-1.828-6.13-2.453.738.363 1.217z"/><path data-name="Path 22587" d="M-1064.452 4402.183l-2.65 5.836 5.8 2.657 2.65-5.836zm2.529 6.794l-3.5-1.6 1.586-3.5 3.5 1.6z"/><path data-name="Path 22588" d="M-1081.681 4299.664l.839.973 4.813-4.193-1.677-1.943-.958.832.842.97z"/><path data-name="Path 22589" d="M-1063.549 4317.286l-4.55 2.328.582 1.145 5.677-2.9-1.164-2.294-1.127.579z"/><path data-name="Path 22590" d="M-1065.644 4313.424l-4.45 2.519.629 1.12 5.552-3.145-1.258-2.241-1.1.626z"/><path data-name="Path 22591" d="M-1069.629 4304.617l-5.348 3.477 3.471 5.386 5.348-3.477zm-3.593 3.868l3.23-2.1 2.078 3.226-3.226 2.1z"/><path data-name="Path 22592" d="M-1138.128 4267.45l1.264.207 1.017-6.318-2.532-.41-.2 1.255 1.264.2z"/><path data-name="Path 22593" d="M-1161.902 4462.561l-1.274-.135-.673 6.362 2.547.272.135-1.264-1.274-.135z"/><path data-name="Path 22594" d="M-1058.43 4328.928l-4.8 1.749.435 1.208 5.993-2.181-.873-2.419-1.189.435z"/><path data-name="Path 22595" d="M-1054.782 4335.783l-6.187 1.54 1.54 6.228 6.184-1.54zm-3.73 6.212l-.92-3.727 3.731-.93.92 3.73z"/><path data-name="Path 22596" d="M-1053.873 4345.42l-5.023.926.232 1.264 6.268-1.155-.463-2.529-1.242.228z"/><path data-name="Path 22597" d="M-1057.003 4333.087l-4.869 1.54.385 1.227 6.078-1.922-.77-2.453-1.208.382z"/><path data-name="Path 22598" d="M-1074.72 4297.9l-5.061 3.89 3.887 5.1 5.057-3.89zm-3.277 4.14l3.051-2.347 2.328 3.051-3.051 2.347z"/><path data-name="Path 22599" d="M-1108.555 4277.395l1.133.6 2.976-5.658-2.266-1.2-.592 1.123 1.133.6z"/><path data-name="Path 22600" d="M-1114.155 4267.621l-2.623 5.83 5.824 2.638 2.623-5.83zm2.554 6.785l-3.486-1.583 1.58-3.514 3.486 1.58z"/><path data-name="Path 22601" d="M-1118.105 4272.948l2.263-5.983-2.4-.911-.448 1.186 1.2.457-1.812 4.794z"/><path data-name="Path 22602" d="M-1134.067 4261.609l-1.4 6.243 6.234 1.4 1.4-6.243zm3.865 6.127l-3.733-.842.842-3.765 3.733.842z"/><path data-name="Path 22603" d="M-1084.492 4296.588l.876.936 4.635-4.394-1.759-1.871-.92.873.879.936z"/><path data-name="Path 22604" d="M-1126.043 4263.49l-1.89 6.112 6.1 1.9 1.89-6.109zm3.361 6.422l-3.655-1.142 1.143-3.683 3.655 1.139z"/><path data-name="Path 22605" d="M-1092.284 4280.201l-3.962 5.01 5 3.99 3.962-5.01zm.823 7.207l-2.995-2.391 2.388-3.02 3 2.388z"/><path data-name="Path 22606" d="M-1104.991 4279.398l1.1.648 3.211-5.527-2.213-1.3-.635 1.1 1.1.648z"/><path data-name="Path 22607" d="M-1085.863 4285.481l-4.356 4.672 4.666 4.384 4.353-4.672zm.238 7.251l-2.8-2.626 2.626-2.817 2.794 2.623z"/><path data-name="Path 22608" d="M-1099.111 4275.473l-3.546 5.317 5.311 3.571 3.546-5.317zm1.4 7.116l-3.179-2.137 2.137-3.208 3.183 2.138z"/><path data-name="Path 22609" d="M-1060.923 4319.576l-5.846 2.551 2.547 5.883 5.843-2.547zm-4.18 3.221l3.527-1.536 1.524 3.523-3.527 1.54z"/><path data-name="Path 22610" d="M-1122.108 4458.072l-6.137 1.793 1.784 6.146 6.134-1.8zm-4.553 2.654l3.674-1.073 1.076 3.705-3.674 1.073z"/><path data-name="Path 22611" d="M-1228.832 4423.06l-5.032 3.927 3.924 5.067 5.029-3.931zm-3.248 4.165l3.036-2.369 2.35 3.032-3.036 2.369z"/><path data-name="Path 22612" d="M-1220.165 4433.284l-.889-.926-4.6 4.428 1.774 1.856.914-.879-.889-.926z"/><path data-name="Path 22613" d="M-1222.998 4430.233l-.845-.967-4.782 4.231 1.693 1.931.948-.839-.848-.967z"/><path data-name="Path 22614" d="M-1129.744 4465.524l-1.12-5-1.249.285 1.4 6.24 2.5-.563-.276-1.239z"/><path data-name="Path 22615" d="M-1219.115 4435.321l-4.318 4.7 4.7 4.35 4.318-4.707zm.3 7.248l-2.816-2.6 2.607-2.838 2.814 2.6z"/><path data-name="Path 22616" d="M-1212.314 4441.425l-.992-.81-4.021 4.963 1.987 1.624.8-.986-.992-.814z"/><path data-name="Path 22617" d="M-1238.997 4405.842l-5.711 2.839 2.835 5.749 5.711-2.839zm-4.009 3.427l3.446-1.712 1.7 3.445-3.442 1.712z"/><path data-name="Path 22618" d="M-1111.212 4453.525l-5.865 2.544 2.525 5.874 5.865-2.541zm-4.187 3.2l3.514-1.524 1.521 3.542-3.511 1.524z"/><path data-name="Path 22619" d="M-1230.449 4420.755l-.714-1.067-5.3 3.552 1.421 2.141 1.052-.707-.71-1.07z"/><path data-name="Path 22620" d="M-1242.023 4398.513l-5.921 2.369 2.363 5.958 5.921-2.366zm-4.272 3.092l3.571-1.427 1.415 3.571-3.571 1.427z"/><path data-name="Path 22621" d="M-1235.389 4412.901l-5.462 3.29 3.286 5.5 5.467-3.289zm-3.721 3.74l3.3-1.984 1.969 3.3-3.3 1.984z"/><path data-name="Path 22622" d="M-1117.854 4461.89l-1.731-4.826-1.2.435 2.156 6.021 2.413-.873-.429-1.192z"/><path data-name="Path 22623" d="M-1145.136 4462.847l-6.387.231.228 6.394 6.387-.232zm-4.923 5.31l-.138-3.858 3.824-.138.138 3.859z"/><path data-name="Path 22624" d="M-1133.929 4466.422l-.907-5.048-1.261.228 1.133 6.3 2.522-.457-.225-1.252z"/><path data-name="Path 22625" d="M-1186.016 4456.803l-2.19 6.011 2.407.882.435-1.192-1.2-.441 1.756-4.816z"/><path data-name="Path 22626" d="M-1104.408 4449.81l-5.642 3.01 2.992 5.652 5.642-3.011zm-3.915 3.53l3.376-1.806 1.806 3.408-3.38 1.8z"/><path data-name="Path 22627" d="M-1159.224 4462.832l-.285 6.393 6.384.288.282-6.393zm4.876 5.354l-3.824-.172.172-3.856 3.821.172z"/><path data-name="Path 22628" d="M-1174.855 4460.353l-1.32 6.262 6.249 1.333 1.324-6.259zm3.937 6.084l-3.746-.8.8-3.774 3.743.8z"/><path data-name="Path 22629" d="M-1165.928 4462.059l-1.268-.191-.939 6.331 2.532.379.188-1.255-1.268-.191z"/><path data-name="Path 22630" d="M-1182.269 4458.197l-1.818 6.133 6.121 1.831 1.821-6.131zm3.436 6.381l-3.668-1.1 1.1-3.7 3.667 1.1z"/><path data-name="Path 22631" d="M-1199.199 4450.518l-1.114-.635-3.145 5.564 2.228 1.271.623-1.1-1.114-.635z"/><path data-name="Path 22632" d="M-1202.7 4448.4l-1.086-.682-3.38 5.427 2.172 1.364.673-1.08-1.086-.679z"/><path data-name="Path 22633" d="M-1210.191 4443.201l-3.708 5.2 5.2 3.733 3.705-5.2zm1.183 7.157l-3.119-2.234 2.238-3.139 3.111 2.234z"/><path data-name="Path 22634" d="M-1196.842 4451.891l-2.8 5.749 5.739 2.817 2.8-5.749zm2.344 6.86l-3.436-1.687 1.687-3.467 3.439 1.687z"/><path data-name="Path 22635" d="M-1137.478 4461.931l-6.347.748.742 6.353 6.346-.745zm-4.482 5.693l-.444-3.834 3.8-.447.448 3.833z"/><path data-name="Path 22636" d="M-1189.785 4455.263l-2.441 5.908 2.366.986.485-1.17-1.183-.495 1.956-4.738z"/><path data-name="Path 22637" d="M-1249.087 4393.231l4.916-1.39-.348-1.239-6.134 1.734.7 2.478 1.217-.341z"/><path data-name="Path 22638" d="M-1247.529 4330.977l4.822 1.69.422-1.214-6.018-2.109-.842 2.428 1.192.419z"/><path data-name="Path 22639" d="M-1073.846 4419.837l-3.78 5.173 5.138 3.784 3.781-5.173zm1.1 7.166l-3.1-2.281 2.263-3.1 3.1 2.281z"/><path data-name="Path 22640" d="M-1075.497 4430.5l-3.924-3.286-.82.989 4.894 4.1 1.64-1.975-.97-.813z"/><path data-name="Path 22641" d="M-1245.221 4321.566l-2.472 5.915 5.877 2.475 2.472-5.915zm2.735 6.713l-3.546-1.493 1.481-3.542 3.545 1.493z"/><path data-name="Path 22642" d="M-1081.19 4429.435l-4.387 4.663 4.632 4.394 4.387-4.663zm.207 7.251l-2.8-2.651 2.629-2.795 2.792 2.651z"/><path data-name="Path 22643" d="M-1249.746 4333.63l-1.731 6.174 6.134 1.734 1.73-6.174zm3.53 6.328l-3.7-1.048 1.039-3.7 3.7 1.045z"/><path data-name="Path 22644" d="M-1240.698 4315.299l4.478 2.466.617-1.13-5.589-3.076-1.233 2.256 1.111.61z"/><path data-name="Path 22645" d="M-1068.06 4420.182l-4.3-2.77-.692 1.083 5.361 3.458 1.383-2.165-1.064-.688z"/><path data-name="Path 22646" d="M-1231.924 4299.563l-3.84 5.126 5.095 3.846 3.84-5.126zm1.014 7.182l-3.073-2.319 2.3-3.073 3.073 2.319z"/><path data-name="Path 22647" d="M-1247.786 4397.424l4.854-1.6-.4-1.224-6.055 1.993.8 2.444 1.2-.394z"/><path data-name="Path 22648" d="M-1242.697 4319.203l4.581 2.272.566-1.152-5.714-2.835-1.133 2.306 1.133.563z"/><path data-name="Path 22649" d="M-1251.904 4341.792l-1.233 6.293 6.257 1.235 1.233-6.3zm4.027 6.021l-3.771-.745.738-3.771 3.771.745z"/><path data-name="Path 22650" d="M-1236.875 4306.398l-3.411 5.424 5.389 3.417 3.416-5.423zm1.593 7.076l-3.251-2.062 2.044-3.248 3.251 2.062z"/><path data-name="Path 22651" d="M-1067.739 4409.403l-3.111 5.6 5.564 3.117 3.114-5.6zm1.971 6.975l-3.355-1.878 1.865-3.358 3.354 1.881z"/><path data-name="Path 22652" d="M-1248.009 4362.899l-6.375.054.056 6.415 6.372-.053zm-5.067 5.173l-.031-3.843 3.843-.031.031 3.84z"/><path data-name="Path 22653" d="M-1247.481 4374.992l-6.318.839.839 6.359 6.318-.839zm-4.393 5.758l-.5-3.812 3.812-.5.5 3.808z"/><path data-name="Path 22654" d="M-1094.665 4443.066l-5.195 3.733 3.708 5.2 5.195-3.734zm-3.417 4.018l3.111-2.237 2.237 3.139-3.111 2.234z"/><path data-name="Path 22655" d="M-1099.458 4452.653l-2.669-4.372-1.092.673 3.33 5.455 2.184-1.342-.66-1.086z"/><path data-name="Path 22656" d="M-1246.334 4382.834l-6.228 1.349 1.346 6.271 6.228-1.349zm-3.915 6.1l-.807-3.758 3.756-.814.807 3.759z"/><path data-name="Path 22657" d="M-1228.896 4297.896l3.884 3.333.832-.979-4.844-4.156-1.665 1.956.961.826z"/><path data-name="Path 22658" d="M-1252.806 4372.508l5.095-.357-.088-1.286-6.359.448.178 2.566 1.264-.088z"/><path data-name="Path 22659" d="M-1083.241 4439.806l-3.489-3.746-.936.879 4.353 4.672 1.871-1.759-.864-.926z"/><path data-name="Path 22660" d="M-1088.673 4438.046l-4.926 4.084 4.056 4.935 4.926-4.087zm-3.133 4.244l2.948-2.447 2.448 2.976-2.948 2.448z"/><path data-name="Path 22661" d="M-1253.909 4354.516l-.46 6.4 6.356.46.46-6.4zm4.725 5.486l-3.834-.279.275-3.833 3.834.278z"/><path data-name="Path 22662" d="M-1252.27 4351.475l5.064.679.169-1.274-6.315-.848-.341 2.547 1.255.169z"/><path data-name="Rectangle 208" d="M-1155.897 4345.069h14.081v.666h-14.081z"/><path data-name="Rectangle 209" d="M-1155.351 4384.722h10.716v.666h-10.716z"/><path data-name="Rectangle 210" d="M-1155.855 4343.947h10.716v.666h-10.716z"/><path data-name="Path 22663" d="M-1073.615 4341.237a85.717 85.717 0 00-29.194-44.191 79.907 79.907 0 00-50.037-17.515c-45.409 0-82.354 38.1-82.354 84.933s36.945 84.93 82.354 84.93a80.155 80.155 0 0046.144-14.616 84.584 84.584 0 0029.527-36.822l-.631-.229c-12.964 31-42.31 50.985-75.04 50.985-45.048 0-81.7-37.791-81.7-84.248s36.651-84.257 81.7-84.257c36.2 0 68.415 24.982 78.491 60.808l-2.146.131a82.928 82.928 0 00-28.217-42.041 77.269 77.269 0 00-48.128-16.74c-43.9 0-79.6 36.83-79.6 82.1s35.707 82.1 79.6 82.1c25.765 0 50.027-12.981 64.973-34.724l-.522-.391a78.43 78.43 0 01-64.452 34.436c-.519 0-1.029-.031-1.545-.041v-1.079h1.174a.29.29 0 00.316-.253v-3.233a.29.29 0 00-.316-.254h-1.174v-1.59h1.174a.29.29 0 00.316-.253v-3.237a.292.292 0 00-.316-.253h-1.174v-1.9h-.646v1.9h-1.747v-1.9h-.646v1.9h-1.12a.29.29 0 00-.316.253v3.24a.288.288 0 00.316.253h1.12v1.59h-1.12a.288.288 0 00-.316.254v3.233a.288.288 0 00.316.253h1.12v.964c-41.406-2.46-74.363-37.963-74.363-81.265 0-44.895 35.418-81.425 78.952-81.425 34.83 0 65.993 24.084 75.793 58.555l.069.257 3.481-.2zm-83.17 98.2h1.751v1.59h-1.751zm0 5.329h1.751v1.055c-.583-.016-1.172-.016-1.751-.044z"/><path data-name="Path 22664" d="M-1138.812 4332.551a25.759 25.759 0 00-10.23-2.2h-11.641a.614.614 0 00-.617.61v25.02a.612.612 0 00.617.607h11.641c6.35 0 11.122-1.815 14.183-5.4a13.285 13.285 0 003.179-8.355c-.002-4.311-2.372-8.01-7.132-10.282zm-14.33 22.281h-2.153v-1.728h2.153zm0-4.263h-2.153v-1.649h2.153zm16.952-.516c-2.713 3.17-7.035 4.779-12.849 4.779h-3.436v-2.582h5.214a16.325 16.325 0 001.734-.047 5 5 0 001.264-.3 7.091 7.091 0 003.9-3.217 11.621 11.621 0 001.408-3.489h1.2a.251.251 0 00.216-.275v-4.084a.253.253 0 00-.216-.275h-1.187a10 10 0 00-1.071-2.754 7.256 7.256 0 00-4.969-3.63 11.856 11.856 0 00-1.427-.15c-.6-.031-1.189-.028-1.189-.028h-8.344v.667h8.29s.766-.016 1.505.035a9.105 9.105 0 011.527.225 6.627 6.627 0 014.024 3.207 9.223 9.223 0 01.958 2.429h-1.352a.253.253 0 00-.219.275v4.084a.25.25 0 00.219.275h1.343a10.951 10.951 0 01-1.286 3.152 6.2 6.2 0 01-5.461 3.233h-6.087v-2.663h9.9c.131 0 .234-.144.234-.322v-2.128c0-.178-.1-.322-.234-.322h-13.381v.667h5.02v1.443h-5.026v6.578h-3.574v-22.72h10.5a24.018 24.018 0 019.473 2.025c4.012 1.915 6.131 4.923 6.131 8.7a11.5 11.5 0 01-2.754 7.213zm-14.079-1.8v-1.443h1.6v1.443zm3.668-.351v-.738c0-.063.038-.113.081-.113h2.028c.047 0 .081.05.081.113v.738c0 .063-.034.113-.081.113h-2.028c-.052 0-.082-.049-.082-.111z"/><path data-name="Path 22665" d="M-1135.355 4370.188a36.1 36.1 0 00-12.38-2h-13.034a.619.619 0 00-.617.613v28a.615.615 0 00.617.61h13.034c7.2 0 13.062-1.834 16.943-5.295a13.645 13.645 0 004.782-10.017c.005-5.336-3.235-9.561-9.345-11.911zm3.392 20.62c-3.552 3.17-9.01 4.847-15.772 4.847h-11.89v-25.708h12.146a33.158 33.158 0 0111.494 1.881c3.752 1.446 8.218 4.4 8.218 10.274a11.88 11.88 0 01-4.2 8.708z"/></g><path data-name="Path 22666" d="M-1103.215 4373.308c-3.618-10.837-14.85-13.473-14.974-13.5a.944.944 0 01-.718-.924.924.924 0 01.431-.782l.074-.045a17.136 17.136 0 008.669-11.839c1.539-6.8-.336-13.487-2.774-16.878a25.331 25.331 0 00-10.845-8.749 33.136 33.136 0 00-11.29-2.133h-3.7a.941.941 0 01-.945-.945v-19.938a.6.6 0 00-.594-.594h-9.906a.594.594 0 00-.592.594v19.937a.946.946 0 01-.945.945h-8.97a.946.946 0 01-.945-.945v-19.937a.594.594 0 00-.586-.594h-9.906a.6.6 0 00-.594.594v19.937a.946.946 0 01-.945.945h-24.183a.59.59 0 00-.592.594v9.593a.589.589 0 00.592.592h14.432a.947.947 0 01.945.945v66.472a.947.947 0 01-.945.945h-11.041a.933.933 0 00-.916.747l-2.1 10.777a.923.923 0 00.753 1.1c8.737 1.376 22.64 1.054 22.787 1.054h.029a.937.937 0 01.938.938v18.949a.6.6 0 00.592.594h9.909a.6.6 0 00.592-.594v-18.951a.942.942 0 01.945-.938h8.97a.942.942 0 01.945.938v18.949a.6.6 0 00.594.594h9.906a.594.594 0 00.586-.594v-18.949a.946.946 0 01.893-.938 61.933 61.933 0 0019.784-3.991 27.71 27.71 0 0012.309-9.2c6.271-8.667 5.071-19.576 3.331-24.775zm-58.022-42.344a.614.614 0 01.615-.608h11.647a25.709 25.709 0 0110.228 2.2c4.76 2.271 7.132 5.969 7.132 10.288a13.28 13.28 0 01-3.178 8.356c-3.061 3.58-7.834 5.4-14.182 5.4h-11.647a.612.612 0 01-.615-.606zm30.592 61.155c-3.882 3.463-9.739 5.294-16.944 5.294h-13.033a.612.612 0 01-.615-.608v-28a.619.619 0 01.615-.615h13.033a36.059 36.059 0 0112.382 2c6.107 2.349 9.344 6.576 9.344 11.913a13.643 13.643 0 01-4.782 10.015z" fill="#4022b0"/><g data-name="Group 1706" fill="#90c0e0"><path data-name="Path 22667" d="M-1228.591 4514.451a4.44 4.44 0 01.967 2.961 4.571 4.571 0 01-1.583 3.759 7.213 7.213 0 01-4.653 1.293h-8.314v-17.043h8.363a5.263 5.263 0 013.481 1 3.694 3.694 0 011.184 2.985 4.342 4.342 0 01-.532 2.248 2.971 2.971 0 01-1.547 1.281 4.6 4.6 0 012.634 1.516zm-3.722-4.194q0-1.908-2.49-1.909h-4.06v4.012h4.012q2.533 0 2.533-2.1zm.338 8.7a2.156 2.156 0 00.774-1.813q0-2.368-3.287-2.369h-4.303v4.786h4.375a3.963 3.963 0 002.437-.6z"/><path data-name="Path 22668" d="M-1225.188 4506.877a1.978 1.978 0 01-.6-1.45 1.941 1.941 0 01.6-1.438 2 2 0 011.45-.592 1.933 1.933 0 011.414.592 1.96 1.96 0 01.592 1.438 2 2 0 01-.592 1.45 1.912 1.912 0 01-1.414.6 1.977 1.977 0 01-1.45-.6zm3.07 15.59h-3.331v-13.13h3.335z"/><path data-name="Path 22669" d="M-1217.49 4521.725a4.932 4.932 0 01-.931-3.323v-6.333h-1.887v-2.731h1.885v-5.1h3.263v5.1h3.77v2.731h-3.77v5.777a2.631 2.631 0 00.375 1.607 1.661 1.661 0 001.366.471 7.182 7.182 0 002.006-.266v2.659a5.8 5.8 0 01-1.257.326 10.818 10.818 0 01-1.764.133 3.9 3.9 0 01-3.056-1.051z"/><path data-name="Path 22670" d="M-1208.241 4521.892a5.681 5.681 0 01-2.429-2.381 7.525 7.525 0 01-.834-3.626 7.279 7.279 0 01.846-3.553 5.9 5.9 0 012.441-2.405 7.85 7.85 0 013.77-.858 7.736 7.736 0 013.36.7 6 6 0 012.345 1.909l-2.3 2.054a4 4 0 00-3.287-1.668 3.856 3.856 0 00-2.816 1.027 3.661 3.661 0 00-1.052 2.743 3.862 3.862 0 001.039 2.84 3.763 3.763 0 002.8 1.052 4.216 4.216 0 002.018-.471 4.136 4.136 0 001.414-1.2l2.248 2.031a6.1 6.1 0 01-2.369 1.933 7.851 7.851 0 01-3.408.7 8.09 8.09 0 01-3.786-.827z"/><path data-name="Path 22671" d="M-1194.296 4521.911a6.007 6.007 0 01-2.514-2.393 7.84 7.84 0 010-7.227 6.011 6.011 0 012.514-2.393 9.1 9.1 0 017.662 0 6.011 6.011 0 012.514 2.393 7.84 7.84 0 010 7.227 6.007 6.007 0 01-2.514 2.393 9.1 9.1 0 01-7.662 0zm6.635-3.191a4.228 4.228 0 10-2.8 1.063 3.823 3.823 0 002.8-1.062z"/><path data-name="Path 22672" d="M-1180.886 4506.877a1.977 1.977 0 01-.6-1.45 1.94 1.94 0 01.6-1.438 2 2 0 011.451-.592 1.93 1.93 0 011.414.592 1.961 1.961 0 01.592 1.438 2 2 0 01-.592 1.45 1.912 1.912 0 01-1.414.6 1.977 1.977 0 01-1.451-.6zm3.07 15.59h-3.336v-13.13h3.336z"/><path data-name="Path 22673" d="M-1171.715 4510.301a9.161 9.161 0 012.2-.907 8.848 8.848 0 012.369-.35 5.8 5.8 0 012.743.544 3.141 3.141 0 011.45 1.74 9.634 9.634 0 01.447 3.275v7.855h-3.287v-7.348a3.734 3.734 0 00-.592-2.4 2.477 2.477 0 00-1.97-.689 5.363 5.363 0 00-3.239 1.039v9.4h-3.311v-13.125h3.19z"/><path data-name="Path 22674" d="M-1141.527 4514.451a4.443 4.443 0 01.967 2.961 4.572 4.572 0 01-1.583 3.759 7.213 7.213 0 01-4.653 1.293h-8.315v-17.043h8.363a5.264 5.264 0 013.481 1 3.694 3.694 0 011.184 2.985 4.338 4.338 0 01-.532 2.248 2.971 2.971 0 01-1.547 1.281 4.6 4.6 0 012.635 1.516zm-3.723-4.194q0-1.908-2.49-1.909h-4.061v4.012h4.012q2.542 0 2.542-2.1zm.339 8.7a2.157 2.157 0 00.774-1.813q0-2.368-3.287-2.369h-4.3v4.786h4.375a3.963 3.963 0 002.442-.6z"/><path data-name="Path 22675" d="M-1136.535 4521.892a5.49 5.49 0 01-2.248-2.381 8.01 8.01 0 01-.773-3.626 7.832 7.832 0 01.785-3.613 5.622 5.622 0 012.236-2.369 6.719 6.719 0 013.408-.834 6.266 6.266 0 013.867 1.16v-.894h3.287v13.127h-3.287v-.967a4.5 4.5 0 01-1.668.919 7.559 7.559 0 01-5.607-.52zm5.886-2.381a3.588 3.588 0 001.462-.918v-5.366a3.7 3.7 0 00-1.474-.931 5.355 5.355 0 00-1.765-.3 3.688 3.688 0 00-2.768 1.027 3.928 3.928 0 00-1 2.864 3.969 3.969 0 001 2.876 3.7 3.7 0 002.792 1.04 5.439 5.439 0 001.747-.291z"/><path data-name="Path 22676" d="M-1119.855 4522.465h-3.335v-18.224h3.335z"/><path data-name="Path 22677" d="M-1114.763 4521.892a5.489 5.489 0 01-2.248-2.381 8.008 8.008 0 01-.773-3.626 7.832 7.832 0 01.785-3.613 5.621 5.621 0 012.236-2.369 6.719 6.719 0 013.408-.834 6.264 6.264 0 013.867 1.16v-.894h3.288v13.127h-3.288v-.967a4.506 4.506 0 01-1.667.919 7.56 7.56 0 01-5.608-.52zm5.885-2.381a3.589 3.589 0 001.462-.918v-5.366a3.7 3.7 0 00-1.474-.931 5.355 5.355 0 00-1.764-.3 3.69 3.69 0 00-2.768 1.027 3.928 3.928 0 00-1 2.864 3.968 3.968 0 001 2.876 3.7 3.7 0 002.792 1.04 5.438 5.438 0 001.757-.291z"/><path data-name="Path 22678" d="M-1098.372 4510.301a9.178 9.178 0 012.2-.907 8.853 8.853 0 012.369-.35 5.8 5.8 0 012.743.544 3.141 3.141 0 011.45 1.74 9.637 9.637 0 01.447 3.275v7.855h-3.287v-7.348a3.734 3.734 0 00-.592-2.4 2.476 2.476 0 00-1.97-.689 5.362 5.362 0 00-3.239 1.039v9.4h-3.311v-13.125h3.19z"/><path data-name="Path 22679" d="M-1084.534 4521.892a5.678 5.678 0 01-2.429-2.381 7.524 7.524 0 01-.834-3.626 7.278 7.278 0 01.846-3.553 5.9 5.9 0 012.441-2.405 7.851 7.851 0 013.77-.858 7.739 7.739 0 013.36.7 5.993 5.993 0 012.344 1.909l-2.3 2.054a4.006 4.006 0 00-3.287-1.668 3.857 3.857 0 00-2.816 1.027 3.66 3.66 0 00-1.052 2.743 3.862 3.862 0 001.039 2.84 3.763 3.763 0 002.8 1.052 4.216 4.216 0 002.018-.471 4.137 4.137 0 001.414-1.2l2.248 2.031a6.1 6.1 0 01-2.369 1.933 7.852 7.852 0 01-3.408.7 8.088 8.088 0 01-3.785-.827z"/><path data-name="Path 22680" d="M-1060.082 4516.901h-10.152a3.565 3.565 0 001.257 2.26 4.079 4.079 0 002.611.786 5.25 5.25 0 002.126-.423 4.371 4.371 0 001.643-1.245l2.079 1.764q-1.934 2.683-6.091 2.683a7.833 7.833 0 01-3.722-.834 5.709 5.709 0 01-2.4-2.381 7.526 7.526 0 01-.834-3.626 7.3 7.3 0 01.858-3.6 5.981 5.981 0 012.4-2.393 7.237 7.237 0 013.529-.846 6.454 6.454 0 014.991 1.873 7.106 7.106 0 011.728 5.015zm-8.919-4.435a3.3 3.3 0 00-1.208 2.043h6.913a3.131 3.131 0 00-1.04-1.958 3.553 3.553 0 00-2.441-.773 3.6 3.6 0 00-2.215.693z"/></g><path data-name="Rectangle 211" d="M-1247.003 4542.119h187.781a16.833 16.833 0 0116.833 16.833v22.438a16.833 16.833 0 01-16.833 16.829h-187.781a16.833 16.833 0 01-16.833-16.829v-22.438a16.833 16.833 0 0116.833-16.833z" fill="#2d1ebc"/><g data-name="Group 1707" fill="#90c0e0"><path data-name="Path 22681" d="M-1229.075 4562.585l8.406-2.048h2.443v25.434h-5.1v-20.446l-4.706 1.042z"/><path data-name="Path 22682" d="M-1207.631 4585.969h-5.6l11.029-20.943h-12.183v-4.383h18.752v2.335z"/><path data-name="Path 22683" d="M-1195.489 4585.035a2.939 2.939 0 01-.9-2.156 2.881 2.881 0 01.9-2.138 2.968 2.968 0 012.155-.88 2.87 2.87 0 012.1.88 2.912 2.912 0 01.88 2.138 2.971 2.971 0 01-.88 2.156 2.843 2.843 0 01-2.1.9 2.938 2.938 0 01-2.155-.9z"/><path data-name="Path 22684" d="M-1181.98 4584.89a10.189 10.189 0 01-4.006-4.526 18.658 18.658 0 010-14.1 10.178 10.178 0 014.006-4.545 12.834 12.834 0 0112.34 0 10.324 10.324 0 014.005 4.545 18.393 18.393 0 010 14.082 10.32 10.32 0 01-4 4.545 12.834 12.834 0 01-12.34 0zm10.885-5.335a12.191 12.191 0 000-12.5 6.074 6.074 0 00-9.43 0 12.3 12.3 0 000 12.5 6.074 6.074 0 009.43 0z"/><path data-name="Path 22685" d="M-1145.626 4571.239a7.683 7.683 0 012.91 2.928 7.916 7.916 0 011.006 3.9 7.543 7.543 0 01-2.694 6.233 11.283 11.283 0 01-7.292 2.173 11.61 11.61 0 01-7.365-2.119 6.963 6.963 0 01-2.694-5.784v-.431h4.742v.216a3.2 3.2 0 001.383 2.73 6.259 6.259 0 003.755 1.006 5.726 5.726 0 003.79-1.132 3.84 3.84 0 001.347-3.107 3.558 3.558 0 00-1.491-3.035 6.11 6.11 0 00-3.718-1.1 9.258 9.258 0 00-3.52.719l-1.724-2.3 7.472-7.113h-10.813v-4.383h17.926v2.156l-7.616 7.328h.072a8.822 8.822 0 014.524 1.115z"/><path data-name="Path 22686" d="M-1123.537 4570.239a7.99 7.99 0 013.377 3 8.546 8.546 0 011.221 4.616 7.815 7.815 0 01-2.694 6.413 11.284 11.284 0 01-7.365 2.209 13.919 13.919 0 01-5.406-.97 7.992 7.992 0 01-3.574-2.766 7.139 7.139 0 01-1.258-4.2v-.4h4.749v.18a3.145 3.145 0 001.491 2.712 6.753 6.753 0 003.9 1.024 5.663 5.663 0 003.79-1.15 3.977 3.977 0 001.347-3.2 4.092 4.092 0 00-1.419-3.377 6.149 6.149 0 00-3.97-1.15 9.3 9.3 0 00-2.73.4 4.116 4.116 0 00-1.9 1.078l-4.275-.036.791-13.975h16.848v4.383h-12.473l-.323 5.065a9.9 9.9 0 012.3-.664 15.507 15.507 0 012.694-.234 11.094 11.094 0 014.879 1.042z"/></g><g data-name="Group 1708" fill="#90c0e0"><path data-name="Path 22687" d="M-1099.417 4567.476a3.3 3.3 0 01.719 2.2 3.4 3.4 0 01-1.177 2.793 5.364 5.364 0 01-3.458.961h-6.179v-12.663h6.215a3.907 3.907 0 012.586.746 2.743 2.743 0 01.88 2.218 3.225 3.225 0 01-.4 1.671 2.205 2.205 0 01-1.15.952 3.422 3.422 0 011.959 1.122zm-2.766-3.116q0-1.419-1.85-1.419h-3.014v2.982h2.982q1.882 0 1.882-1.567zm.251 6.466a1.6 1.6 0 00.575-1.347q0-1.761-2.443-1.76h-3.2v3.556h3.251a2.947 2.947 0 001.812-.449z"/><path data-name="Path 22688" d="M-1098.932 4560.766h10.652v2.209h-4.042v10.454h-2.568v-10.454h-4.042z"/><path data-name="Path 22689" d="M-1084.905 4572.887a5.477 5.477 0 01-2.291-2.29 7.348 7.348 0 01-.8-3.521 7.244 7.244 0 01.8-3.5 5.451 5.451 0 012.291-2.263 7.412 7.412 0 013.52-.791 7.617 7.617 0 013.215.638 6.478 6.478 0 012.335 1.8l-1.958 1.671a4.033 4.033 0 00-1.464-1.239 4.5 4.5 0 00-2.056-.449 3.968 3.968 0 00-2.964 1.1 4.142 4.142 0 00-1.078 3.035 4.278 4.278 0 001.087 3.08 3.884 3.884 0 002.955 1.141 4.5 4.5 0 002.056-.449 4.028 4.028 0 001.464-1.239l1.958 1.671a6.514 6.514 0 01-2.327 1.787 7.707 7.707 0 01-3.224.62 7.34 7.34 0 01-3.519-.807z"/></g><g data-name="Group 1709" fill="#90c0e0"><path data-name="Path 22690" d="M-1214.258 4669.501a5.617 5.617 0 01-2.209-2.5 10.284 10.284 0 010-7.775 5.606 5.606 0 012.209-2.506 7.075 7.075 0 016.8 0 5.692 5.692 0 012.209 2.506 10.147 10.147 0 010 7.765 5.694 5.694 0 01-2.209 2.505 7.074 7.074 0 01-6.8 0zm6-2.941a6.722 6.722 0 000-6.893 3.349 3.349 0 00-5.2 0 6.784 6.784 0 000 6.893 3.349 3.349 0 005.2 0z"/><path data-name="Path 22691" d="M-1202.733 4669.583a1.619 1.619 0 01-.5-1.188 1.589 1.589 0 01.5-1.179 1.637 1.637 0 011.188-.485 1.581 1.581 0 011.159.485 1.6 1.6 0 01.485 1.179 1.636 1.636 0 01-.485 1.188 1.568 1.568 0 01-1.159.5 1.62 1.62 0 01-1.188-.5z"/><path data-name="Path 22692" d="M-1199.897 4657.205l4.635-1.129h1.347v14.024h-2.812v-11.271l-2.595.575z"/><path data-name="Path 22693" d="M-1182.902 4661.418a4.4 4.4 0 011.862 1.654 4.709 4.709 0 01.673 2.545 4.31 4.31 0 01-1.485 3.536 6.221 6.221 0 01-4.061 1.218 7.684 7.684 0 01-2.981-.535 4.409 4.409 0 01-1.971-1.525 3.938 3.938 0 01-.693-2.318v-.218h2.615v.1a1.734 1.734 0 00.822 1.5 3.72 3.72 0 002.149.565 3.123 3.123 0 002.09-.634 2.192 2.192 0 00.743-1.763 2.255 2.255 0 00-.783-1.862 3.388 3.388 0 00-2.189-.634 5.132 5.132 0 00-1.506.218 2.262 2.262 0 00-1.049.594l-2.357-.02.436-7.7h9.29v2.417h-6.874l-.178 2.793a5.429 5.429 0 011.268-.367 8.566 8.566 0 011.485-.129 6.119 6.119 0 012.694.565z"/></g><g data-name="Group 1710" fill="#90c0e0"><path data-name="Path 22694" d="M-1170.286 4659.897a1.819 1.819 0 01.4 1.213 1.874 1.874 0 01-.649 1.54 2.958 2.958 0 01-1.907.53h-3.404v-6.973h3.427a2.156 2.156 0 011.426.411 1.513 1.513 0 01.485 1.223 1.776 1.776 0 01-.218.921 1.214 1.214 0 01-.634.525 1.89 1.89 0 011.077.61zm-1.526-1.719q0-.782-1.02-.782h-1.664v1.644h1.644q1.036.007 1.036-.853zm.139 3.566a.885.885 0 00.317-.743q0-.97-1.347-.971h-1.763v1.961h1.793a1.63 1.63 0 001-.244z"/><path data-name="Path 22695" d="M-1170.021 4656.207h5.873v1.218h-2.228v5.764h-1.416v-5.764h-2.229z"/><path data-name="Path 22696" d="M-1162.282 4662.883a3.02 3.02 0 01-1.262-1.263 4.046 4.046 0 01-.441-1.941 3.993 3.993 0 01.441-1.931 3.012 3.012 0 011.262-1.248 4.093 4.093 0 011.942-.436 4.2 4.2 0 011.773.352 3.575 3.575 0 011.288 1l-1.08.921a2.217 2.217 0 00-.807-.683 2.481 2.481 0 00-1.134-.248 2.189 2.189 0 00-1.634.6 2.285 2.285 0 00-.594 1.674 2.362 2.362 0 00.6 1.7 2.145 2.145 0 001.629.629 2.481 2.481 0 001.134-.248 2.212 2.212 0 00.807-.684l1.08.921a3.587 3.587 0 01-1.283.986 4.25 4.25 0 01-1.777.342 4.052 4.052 0 01-1.944-.443z"/></g><g data-name="Group 1711" fill="#90c0e0"><path data-name="Path 22697" d="M-1216.38 4679.174h-3.108v2.472h2.708v.256h-2.706v2.172h-.27v-5.16h3.376z"/><path data-name="Path 22698" d="M-1215.308 4681.095a1.662 1.662 0 01.523-.742 1.289 1.289 0 01.823-.274 1.4 1.4 0 01.607.124v.3a1.952 1.952 0 00-.318-.117 1.285 1.285 0 00-.318-.037 1.111 1.111 0 00-.681.224 1.473 1.473 0 00-.468.606 2.1 2.1 0 00-.168.852v2.04h-.264v-3.941h.264z"/><path data-name="Path 22699" d="M-1211.989 4683.865a1.87 1.87 0 01-.753-.717 2.178 2.178 0 010-2.1 1.881 1.881 0 01.753-.713 2.454 2.454 0 012.183 0 1.885 1.885 0 01.749.713 2.175 2.175 0 010 2.1 1.876 1.876 0 01-.749.717 2.454 2.454 0 01-2.183 0zm2.044-.223a1.62 1.62 0 00.654-.625 1.916 1.916 0 000-1.835 1.615 1.615 0 00-.654-.625 2.134 2.134 0 00-1.9 0 1.614 1.614 0 00-.655.625 1.916 1.916 0 000 1.835 1.618 1.618 0 00.655.625 2.138 2.138 0 001.9 0z"/><path data-name="Path 22700" d="M-1202 4680.465a1.884 1.884 0 01.358 1.294v2.311h-.256v-2.311a1.584 1.584 0 00-.307-1.1 1.219 1.219 0 00-.929-.326 2.236 2.236 0 00-.819.143 3.212 3.212 0 00-.7.384 2.59 2.59 0 01.132.9v2.311h-.256v-2.311a1.611 1.611 0 00-.3-1.1 1.185 1.185 0 00-.914-.326 2.141 2.141 0 00-.819.15 3.417 3.417 0 00-.709.4v3.188h-.263v-3.941h.263v.5a2.958 2.958 0 01.724-.395 2.31 2.31 0 01.833-.154 1.778 1.778 0 01.753.143 1.019 1.019 0 01.475.45 2.5 2.5 0 01.731-.428 2.463 2.463 0 01.9-.164 1.435 1.435 0 011.1.382z"/><path data-name="Path 22701" d="M-1200.655 4680.418a.273.273 0 010-.387.267.267 0 01.19-.077.271.271 0 110 .541.266.266 0 01-.19-.077zm0 3.525a.273.273 0 010-.387.268.268 0 01.19-.077.271.271 0 11-.19.464z"/><path data-name="Path 22702" d="M-1193.35 4679.215l1.353-.3h.219v5.162h-.278v-4.9l-1.236.278z"/><path data-name="Path 22703" d="M-1186.597 4681.664a1.369 1.369 0 01.318.943 1.343 1.343 0 01-.443 1.093 2.007 2.007 0 01-1.312.369h-2.245v-5.155h2.172a1.426 1.426 0 01.991.315 1.143 1.143 0 01.348.892 1.2 1.2 0 01-.19.7.966.966 0 01-.556.377 1.557 1.557 0 01.917.466zm-.731-.786a.945.945 0 00.274-.742.889.889 0 00-.289-.728 1.225 1.225 0 00-.8-.238h-1.865v1.953h1.884a1.153 1.153 0 00.8-.239zm.413 2.629a1.131 1.131 0 00.351-.9 1.164 1.164 0 00-.366-.9 1.71 1.71 0 00-1.177-.336h-1.9v2.443h1.975a1.675 1.675 0 001.117-.3z"/><path data-name="Path 22704" d="M-1184.268 4684.091l-1.872-3.956h.307l1.652 3.546 1.645-3.546h.3l-1.872 3.956z"/><path data-name="Path 22705" d="M-1177.824 4681.664a1.37 1.37 0 01.318.943 1.344 1.344 0 01-.442 1.093 2.008 2.008 0 01-1.313.369h-2.245v-5.155h2.172a1.427 1.427 0 01.991.315 1.142 1.142 0 01.347.892 1.2 1.2 0 01-.19.7.964.964 0 01-.556.377 1.558 1.558 0 01.918.466zm-.732-.786a.945.945 0 00.274-.742.89.89 0 00-.289-.728 1.226 1.226 0 00-.8-.238h-1.865v1.953h1.887a1.153 1.153 0 00.795-.239zm.413 2.629a1.13 1.13 0 00.351-.9 1.164 1.164 0 00-.366-.9 1.708 1.708 0 00-1.177-.336h-1.9v2.443h1.975a1.675 1.675 0 001.116-.3z"/><path data-name="Path 22706" d="M-1171.915 4684.074v-4.5l-2.157 3.51h-.139l-2.157-3.51v4.5h-.27v-5.16h.183l2.317 3.781 2.311-3.781h.183v5.155z"/><path data-name="Path 22707" d="M-1169.672 4684.017a3.549 3.549 0 01-.907-.351l.117-.27a3.184 3.184 0 00.852.351 4.194 4.194 0 001.005.11 1.948 1.948 0 001.126-.285.959.959 0 00.409-.841.8.8 0 00-.212-.589 1.308 1.308 0 00-.526-.322 8.5 8.5 0 00-.9-.23 6.7 6.7 0 01-1.013-.289 1.434 1.434 0 01-.6-.417 1.072 1.072 0 01-.22-.706 1.138 1.138 0 01.465-.954 2.057 2.057 0 011.276-.355 4.525 4.525 0 01.98.106 3.114 3.114 0 01.819.289l-.132.241a2.991 2.991 0 00-.756-.267 4.187 4.187 0 00-.91-.1 1.783 1.783 0 00-1.071.285.889.889 0 00-.392.753.806.806 0 00.194.559 1.33 1.33 0 00.538.344 6.431 6.431 0 00.9.245 7.418 7.418 0 01.984.26 1.488 1.488 0 01.617.406 1.06 1.06 0 01.242.732 1.218 1.218 0 01-.483 1.049 2.192 2.192 0 01-1.324.355 4.8 4.8 0 01-1.078-.109z"/><path data-name="Path 22708" d="M-1162.387 4679.174h-3.122v2.274h2.672v.249h-2.669v2.117h3.276v.256h-3.546v-5.156h3.393z"/><path data-name="Path 22709" d="M-1159.811 4684.074v-1.784l-2.033-3.371h.322l1.842 3.093 1.843-3.093h.336l-2.033 3.371v1.784z"/><path data-name="Path 22710" d="M-1157.383 4683.755l.1-.241a3.153 3.153 0 001.529.358 1.591 1.591 0 00.969-.234.746.746 0 00.3-.622.542.542 0 00-.15-.4 1.14 1.14 0 00-.443-.256 6.285 6.285 0 00-.8-.2 3.278 3.278 0 01-1.1-.387.752.752 0 01-.336-.666.859.859 0 01.4-.754 1.8 1.8 0 011.024-.27 3.654 3.654 0 011.448.3l-.088.234a2.829 2.829 0 00-.662-.208 3.692 3.692 0 00-.7-.07 1.557 1.557 0 00-.83.2.626.626 0 00-.325.559.515.515 0 00.135.369 1.049 1.049 0 00.406.242 5.9 5.9 0 00.746.2 6.258 6.258 0 01.888.252 1.224 1.224 0 01.494.326.775.775 0 01.168.519.994.994 0 01-.377.811 1.851 1.851 0 01-1.181.307 3.357 3.357 0 01-1.615-.369z"/><path data-name="Path 22711" d="M-1152.636 4684.009a.694.694 0 01-.344-.391 2.163 2.163 0 01-.106-.757v-2.486h-.753v-.241h.753v-1.572h.264v1.572h1.5v.241h-1.5v2.472a1.746 1.746 0 00.088.622.567.567 0 00.267.31 1.1 1.1 0 00.494.092 2.41 2.41 0 00.384-.033 2.257 2.257 0 00.333-.077v.256a1.955 1.955 0 01-.34.077 2.7 2.7 0 01-.4.033 1.467 1.467 0 01-.64-.118z"/><path data-name="Path 22712" d="M-1145.603 4684.094l-1.7-4.658-1.7 4.658h-.161l-1.821-5.177h.3l1.6 4.658 1.689-4.658h.183l1.674 4.665 1.616-4.665h.293l-1.814 5.177z"/><path data-name="Path 22713" d="M-1142.976 4683.085a1.6 1.6 0 00.644.577 1.978 1.978 0 00.9.2 2.226 2.226 0 00.932-.168 1.732 1.732 0 00.625-.5l.2.161a1.925 1.925 0 01-.709.567 2.522 2.522 0 01-1.06.194 2.211 2.211 0 01-1.086-.259 1.81 1.81 0 01-.728-.724 2.151 2.151 0 01-.256-1.057 2.056 2.056 0 01.256-1.031 1.846 1.846 0 01.717-.713 2.236 2.236 0 012.091 0 1.782 1.782 0 01.7.717 2.172 2.172 0 01.245 1.042v.095h-3.736a1.775 1.775 0 00.265.899zm.622-2.549a1.617 1.617 0 00-.622.574 1.683 1.683 0 00-.256.838h3.458a1.835 1.835 0 00-.248-.838 1.526 1.526 0 00-.6-.574 1.827 1.827 0 00-.878-.2 1.807 1.807 0 00-.856.209z"/><path data-name="Path 22714" d="M-1137.913 4684.009a.7.7 0 01-.344-.391 2.169 2.169 0 01-.106-.757v-2.486h-.753v-.241h.753v-1.572h.263v1.572h1.5v.241h-1.5v2.472a1.752 1.752 0 00.087.622.569.569 0 00.267.31 1.1 1.1 0 00.494.092 2.411 2.411 0 00.384-.033 2.254 2.254 0 00.333-.077v.256a1.928 1.928 0 01-.34.077 2.661 2.661 0 01-.4.033 1.467 1.467 0 01-.638-.118z"/><path data-name="Path 22715" d="M-1134.129 4684.125a2.284 2.284 0 01-1.094-.248 1.706 1.706 0 01-.713-.709 2.228 2.228 0 01-.249-1.075 2.123 2.123 0 01.263-1.078 1.736 1.736 0 01.728-.695 2.318 2.318 0 011.071-.238 2.661 2.661 0 01.845.135 2.026 2.026 0 01.7.391v-.475h.256v5.221h-.256v-1.755a2.265 2.265 0 01-1.551.526zm.874-.4a1.836 1.836 0 00.677-.424v-2.386a1.79 1.79 0 00-.68-.431 2.472 2.472 0 00-.848-.146 2.04 2.04 0 00-.936.208 1.53 1.53 0 00-.64.6 1.84 1.84 0 00-.23.943 1.922 1.922 0 00.219.936 1.525 1.525 0 00.625.622 1.977 1.977 0 00.954.219 2.469 2.469 0 00.855-.141z"/><path data-name="Path 22716" d="M-1131.779 4678.914h4.029v.256h-1.88v4.9h-.278v-4.9h-1.872z"/><path data-name="Path 22717" d="M-1123.389 4679.174h-3.108v2.472h2.706v.256h-2.706v2.172h-.27v-5.16h3.378z"/><path data-name="Path 22718" d="M-1122.321 4680.625a3.315 3.315 0 01.79-.38 2.693 2.693 0 01.885-.168 1.583 1.583 0 011.177.384 1.834 1.834 0 01.373 1.3v2.311h-.256v-2.311a1.543 1.543 0 00-.318-1.1 1.364 1.364 0 00-1.005-.322 2.6 2.6 0 00-.881.161 3.06 3.06 0 00-.764.387v3.188h-.263v-3.941h.263z"/><path data-name="Path 22719" d="M-1114.868 4681.124a1.67 1.67 0 01.509 1.3 1.548 1.548 0 01-.995 1.524 2.583 2.583 0 01-.972.179 2.533 2.533 0 01-1-.187 1.615 1.615 0 01-.688-.523 1.249 1.249 0 01-.248-.761v-.1h.263v.1a1 1 0 00.216.629 1.423 1.423 0 00.6.435 2.245 2.245 0 00.863.157 1.947 1.947 0 001.217-.366 1.268 1.268 0 00.479-1.075 1.421 1.421 0 00-.435-1.119 1.746 1.746 0 00-1.2-.388 3.1 3.1 0 00-.859.121 1.5 1.5 0 00-.677.384h-.263l.139-2.508h3.3v.256h-3.049l-.117 1.945a1.861 1.861 0 01.709-.347 3.254 3.254 0 01.841-.113 1.968 1.968 0 011.367.457z"/><path data-name="Path 22720" d="M-1113.636 4684.074h-.292l2.318-5.155h.212l2.318 5.155h-.293l-.651-1.462h-2.972zm2.128-4.811l-1.367 3.093h2.742z"/><path data-name="Path 22721" d="M-1108.104 4683.731a1.768 1.768 0 01-.406-1.312v-2.288h.256v2.289a1.5 1.5 0 00.347 1.115 1.467 1.467 0 001.05.333 2.462 2.462 0 00.888-.161 2.034 2.034 0 00.684-.409v-3.167h.264v3.941h-.264v-.512a2.033 2.033 0 01-.695.4 2.559 2.559 0 01-.892.164 1.715 1.715 0 01-1.232-.393z"/><path data-name="Path 22722" d="M-1100.89 4682.834v1.236h-.278v-1.236h-3.062v-.153l3.166-3.766h.183v3.663h.87v.256zm-2.94-.256h2.662v-3.164z"/><path data-name="Path 22723" d="M-1093.312 4680.465a1.883 1.883 0 01.359 1.294v2.311h-.256v-2.311a1.584 1.584 0 00-.307-1.1 1.219 1.219 0 00-.928-.326 2.238 2.238 0 00-.819.143 3.2 3.2 0 00-.7.384 2.6 2.6 0 01.131.9v2.311h-.256v-2.311a1.61 1.61 0 00-.3-1.1 1.185 1.185 0 00-.914-.326 2.144 2.144 0 00-.819.15 3.4 3.4 0 00-.709.4v3.188h-.264v-3.941h.264v.5a2.941 2.941 0 01.724-.395 2.311 2.311 0 01.833-.154 1.778 1.778 0 01.754.143 1.025 1.025 0 01.475.45 2.5 2.5 0 01.731-.428 2.461 2.461 0 01.9-.164 1.434 1.434 0 011.101.382z"/><path data-name="Path 22724" d="M-1088.892 4682.834v1.236h-.278v-1.236h-3.071v-.153l3.166-3.766h.183v3.663h.87v.256zm-2.939-.256h2.662v-3.164z"/><path data-name="Path 22725" d="M-1083.382 4683.967a4.533 4.533 0 01-1.239.153 3.043 3.043 0 01-1.433-.322 2.284 2.284 0 01-.951-.917 2.769 2.769 0 01-.336-1.386 2.808 2.808 0 01.333-1.393 2.259 2.259 0 01.946-.917 3.031 3.031 0 011.427-.322 2.885 2.885 0 012.04.731l-.183.2a2.444 2.444 0 00-.808-.5 2.989 2.989 0 00-1.049-.168 2.709 2.709 0 00-1.28.289 2.039 2.039 0 00-.848.823 2.74 2.74 0 000 2.493 2.03 2.03 0 00.852.823 2.747 2.747 0 001.291.289 4.357 4.357 0 001.1-.121 2.944 2.944 0 00.848-.369v-1.433h-2.084v-.256h2.355v1.835a3.255 3.255 0 01-.981.468z"/><path data-name="Path 22726" d="M-1077.958 4679.174h-3.108v2.472h2.706v.256h-2.706v2.172h-.271v-5.16h3.378z"/><path data-name="Path 22727" d="M-1076.226 4685.365a5.942 5.942 0 01-.8-.186v-.271a5.529 5.529 0 00.8.208 5 5 0 00.79.055q1.616 0 1.616-1.426v-.3a2.1 2.1 0 01-.706.373 2.808 2.808 0 01-.845.125 2.357 2.357 0 01-1.086-.238 1.724 1.724 0 01-.716-.665 1.87 1.87 0 01-.252-.969 2.076 2.076 0 01.263-1.064 1.751 1.751 0 01.728-.687 2.317 2.317 0 011.071-.238 2.692 2.692 0 01.852.132 1.92 1.92 0 01.691.4v-.475h.255v3.576a1.684 1.684 0 01-.453 1.284 1.964 1.964 0 01-1.389.427 5.491 5.491 0 01-.819-.061zm1.74-1.813a1.776 1.776 0 00.673-.406v-2.231a1.79 1.79 0 00-.68-.431 2.472 2.472 0 00-.848-.146 2.07 2.07 0 00-.936.2 1.508 1.508 0 00-.64.6 1.808 1.808 0 00-.231.932 1.587 1.587 0 00.22.834 1.511 1.511 0 00.629.574 2.067 2.067 0 00.951.208 2.647 2.647 0 00.862-.131z"/><path data-name="Path 22728" d="M-1072.024 4684.074h-.307l2.676-4.9h-3.327v-.256h3.678v.161z"/><path data-name="Path 22729" d="M-1068.519 4684.071h-.337l1.74-2-1.711-1.945h.343l1.536 1.755 1.529-1.755h.343l-1.7 1.953 1.74 1.989h-.344l-1.565-1.792z"/><path data-name="Path 22730" d="M-1064.393 4683.975a.274.274 0 010-.388.268.268 0 01.19-.076.271.271 0 110 .541.268.268 0 01-.19-.077z"/><path data-name="Path 22731" d="M-1063.048 4683.975a.273.273 0 010-.388.28.28 0 01.384 0 .273.273 0 11-.384.388z"/><path data-name="Path 22732" d="M-1061.713 4683.975a.273.273 0 010-.388.267.267 0 01.19-.076.271.271 0 110 .541.268.268 0 01-.19-.077z"/></g><g data-name="Group 1712" fill="#90c0e0"><path data-name="Path 22733" d="M-1147.905 4666.139v3.962h-2.793v-13.965h5.665a6.155 6.155 0 014.2 1.278 4.7 4.7 0 011.446 3.714 5.131 5.131 0 01-.713 2.793 4.276 4.276 0 01-2.08 1.684l3.308 4.5h-3.383l-2.773-3.962zm4.8-3.08a2.285 2.285 0 00.8-1.832 2.606 2.606 0 00-.723-2 3.181 3.181 0 00-2.229-.673h-2.654v5.19h2.417a3.6 3.6 0 002.389-.685z"/><path data-name="Path 22734" d="M-1126.815 4665.547h-8.32a2.92 2.92 0 001.03 1.852 3.345 3.345 0 002.139.644 4.3 4.3 0 001.743-.346 3.583 3.583 0 001.347-1.02l1.7 1.446a5.735 5.735 0 01-4.992 2.2 6.425 6.425 0 01-3.051-.683 4.686 4.686 0 01-1.971-1.952 6.17 6.17 0 01-.683-2.971 5.984 5.984 0 01.7-2.951 4.9 4.9 0 011.971-1.961 5.931 5.931 0 012.892-.693 5.289 5.289 0 014.09 1.535 5.826 5.826 0 011.417 4.11zm-7.309-3.634a2.7 2.7 0 00-.99 1.673h5.665a2.567 2.567 0 00-.852-1.6 2.911 2.911 0 00-2-.634 2.949 2.949 0 00-1.824.555z"/><path data-name="Path 22735" d="M-1122.667 4669.634a4.659 4.659 0 01-1.991-1.952 6.171 6.171 0 01-.683-2.971 5.967 5.967 0 01.693-2.912 4.835 4.835 0 012-1.971 6.43 6.43 0 013.09-.7 6.34 6.34 0 012.754.574 4.912 4.912 0 011.921 1.565l-1.882 1.684a3.28 3.28 0 00-2.694-1.366 3.157 3.157 0 00-2.308.842 3 3 0 00-.862 2.248 3.168 3.168 0 00.852 2.328 3.085 3.085 0 002.3.861 3.456 3.456 0 001.654-.386 3.386 3.386 0 001.159-.981l1.842 1.664a5 5 0 01-1.941 1.585 6.435 6.435 0 01-2.793.575 6.634 6.634 0 01-3.111-.687z"/><path data-name="Path 22736" d="M-1102.629 4665.547h-8.32a2.919 2.919 0 001.03 1.852 3.344 3.344 0 002.139.644 4.307 4.307 0 001.744-.346 3.584 3.584 0 001.347-1.02l1.7 1.446a5.734 5.734 0 01-4.992 2.2 6.422 6.422 0 01-3.05-.683 4.683 4.683 0 01-1.971-1.952 6.164 6.164 0 01-.684-2.971 5.989 5.989 0 01.7-2.951 4.9 4.9 0 011.971-1.961 5.933 5.933 0 012.892-.693 5.29 5.29 0 014.091 1.535 5.826 5.826 0 011.416 4.11zm-7.31-3.634a2.706 2.706 0 00-.99 1.673h5.666a2.567 2.567 0 00-.852-1.6 2.911 2.911 0 00-2-.634 2.948 2.948 0 00-1.824.555z"/><path data-name="Path 22737" d="M-1100.349 4657.326a1.621 1.621 0 01-.5-1.189 1.587 1.587 0 01.5-1.178 1.639 1.639 0 011.188-.485 1.656 1.656 0 011.644 1.663 1.637 1.637 0 01-.485 1.189 1.567 1.567 0 01-1.159.495 1.621 1.621 0 01-1.188-.495zm2.516 12.776h-2.736v-10.756h2.734z"/><path data-name="Path 22738" d="M-1091.319 4670.199l-5.13-10.855h3.03l2.852 6.676 2.873-6.676h2.971l-5.229 10.855z"/><path data-name="Path 22739" d="M-1073.471 4665.547h-8.32a2.92 2.92 0 001.03 1.852 3.346 3.346 0 002.139.644 4.3 4.3 0 001.743-.346 3.583 3.583 0 001.347-1.02l1.7 1.446a5.735 5.735 0 01-4.992 2.2 6.421 6.421 0 01-3.05-.683 4.685 4.685 0 01-1.971-1.952 6.169 6.169 0 01-.683-2.971 5.985 5.985 0 01.7-2.951 4.9 4.9 0 011.971-1.961 5.929 5.929 0 012.892-.693 5.29 5.29 0 014.091 1.535 5.823 5.823 0 011.417 4.11zm-7.309-3.634a2.706 2.706 0 00-.99 1.673h5.665a2.567 2.567 0 00-.852-1.6 2.912 2.912 0 00-2-.634 2.947 2.947 0 00-1.824.555z"/><path data-name="Path 22740" d="M-1069.524 4669.643a4.556 4.556 0 01-1.843-1.961 7.328 7.328 0 010-5.962 4.534 4.534 0 011.822-1.951 5.551 5.551 0 012.813-.683 6.013 6.013 0 011.684.248 4.369 4.369 0 011.486.743v-4.912h2.694v14.938h-2.7v-.792a3.667 3.667 0 01-1.416.782 5.8 5.8 0 01-1.674.248 5.672 5.672 0 01-2.87-.7zm4.833-1.95a3.047 3.047 0 001.188-.763v-4.4a3.167 3.167 0 00-1.178-.763 4.1 4.1 0 00-1.475-.267 3.038 3.038 0 00-2.278.832 3.838 3.838 0 00.01 4.735 2.915 2.915 0 002.228.871 4.441 4.441 0 001.5-.245z"/></g><g data-name="Group 1713" fill="#90c0e0"><path data-name="Path 22741" d="M-1247.606 4620.963h11.747v2.436h-4.457v11.528h-2.833v-11.528h-4.457z"/><path data-name="Path 22742" d="M-1233.255 4634.471a4.923 4.923 0 01-2.06-1.962 6.428 6.428 0 010-5.923 4.93 4.93 0 012.06-1.961 7.457 7.457 0 016.279 0 4.928 4.928 0 012.06 1.961 6.425 6.425 0 010 5.923 4.922 4.922 0 01-2.06 1.962 7.459 7.459 0 01-6.279 0zm5.438-2.615a3.465 3.465 0 10-2.3.872 3.134 3.134 0 002.3-.867z"/><path data-name="Path 22743" d="M-1220.291 4634.468a4.556 4.556 0 01-1.842-1.961 7.327 7.327 0 010-5.962 4.533 4.533 0 011.822-1.951 5.55 5.55 0 012.813-.683 6.019 6.019 0 011.684.248 4.37 4.37 0 011.485.743v-4.912h2.694v14.935h-2.694v-.792a3.67 3.67 0 01-1.416.783 5.779 5.779 0 01-1.673.247 5.675 5.675 0 01-2.873-.695zm4.833-1.951a3.052 3.052 0 001.188-.763v-4.4a3.173 3.173 0 00-1.179-.762 4.112 4.112 0 00-1.476-.268 3.039 3.039 0 00-2.278.832 3.837 3.837 0 00.01 4.734 2.915 2.915 0 002.228.871 4.444 4.444 0 001.508-.243z"/><path data-name="Path 22744" d="M-1207.237 4634.459a4.5 4.5 0 01-1.842-1.951 6.562 6.562 0 01-.634-2.971 6.418 6.418 0 01.644-2.961 4.6 4.6 0 011.832-1.941 5.506 5.506 0 012.793-.683 5.134 5.134 0 013.169.951v-.733h2.694v10.756h-2.694v-.792a3.692 3.692 0 01-1.367.753 6.193 6.193 0 01-4.6-.426zm4.823-1.951a2.938 2.938 0 001.2-.752v-4.4a3.03 3.03 0 00-1.208-.762 4.377 4.377 0 00-1.446-.248 3.024 3.024 0 00-2.268.842 3.218 3.218 0 00-.822 2.347 3.253 3.253 0 00.822 2.357 3.029 3.029 0 002.288.852 4.451 4.451 0 001.434-.235z"/><path data-name="Path 22745" d="M-1191.231 4637.473a3.816 3.816 0 01-1.654 1.03 7.426 7.426 0 01-1.932.228 8.114 8.114 0 01-2.2-.237l.02-2.258a7.4 7.4 0 002.04.277 2.687 2.687 0 002.833-2.021h-.911l-4.517-10.32h3.011l3.03 7.9h.178l2.872-7.9h2.894l-4.239 10.875a6.749 6.749 0 01-1.425 2.426z"/></g><g data-name="Group 1714" fill="#90c0e0"><path data-name="Path 22746" d="M-1214.286 4714.773a5.618 5.618 0 01-2.209-2.5 10.284 10.284 0 010-7.775 5.608 5.608 0 012.209-2.506 7.074 7.074 0 016.8 0 5.691 5.691 0 012.209 2.506 10.146 10.146 0 010 7.765 5.694 5.694 0 01-2.209 2.506 7.073 7.073 0 01-6.8 0zm6-2.941a6.722 6.722 0 000-6.894 3.349 3.349 0 00-5.2 0 6.785 6.785 0 000 6.894 3.349 3.349 0 005.2 0z"/><path data-name="Path 22747" d="M-1202.761 4714.855a1.619 1.619 0 01-.5-1.188 1.589 1.589 0 01.5-1.178 1.637 1.637 0 011.188-.485 1.583 1.583 0 011.159.485 1.6 1.6 0 01.485 1.178 1.636 1.636 0 01-.485 1.188 1.566 1.566 0 01-1.159.5 1.618 1.618 0 01-1.188-.5z"/><path data-name="Path 22748" d="M-1198.519 4715.363v-.654a5.489 5.489 0 011.218-3.021 13.581 13.581 0 013.357-2.8l.476-.3a13.233 13.233 0 002.139-1.575 2.178 2.178 0 00.733-1.615 1.55 1.55 0 00-.644-1.337 2.755 2.755 0 00-1.654-.465 2.918 2.918 0 00-2.03.723 2.509 2.509 0 00-.822 1.911v.238h-2.615v-.455a4.7 4.7 0 01.7-2.575 4.651 4.651 0 011.951-1.713 6.565 6.565 0 012.892-.6 5.828 5.828 0 013.655 1.089 3.671 3.671 0 011.416 3.09 4.214 4.214 0 01-1.178 2.981 13.4 13.4 0 01-3.575 2.506 13.131 13.131 0 00-1.832 1.109 4.463 4.463 0 00-1.04 1.05h7.686v2.417z"/><path data-name="Path 22749" d="M-1182.752 4715.37h-3.09l6.081-11.548h-6.715v-2.422h10.34v1.288z"/></g><g data-name="Group 1715" fill="#90c0e0"><path data-name="Path 22750" d="M-1165.704 4705.168a1.818 1.818 0 01.4 1.214 1.874 1.874 0 01-.649 1.54 2.955 2.955 0 01-1.907.53h-3.407v-6.982h3.427a2.158 2.158 0 011.426.411 1.515 1.515 0 01.485 1.223 1.776 1.776 0 01-.218.921 1.216 1.216 0 01-.633.525 1.886 1.886 0 011.076.618zm-1.525-1.718q0-.782-1.02-.782h-1.664v1.644h1.644q1.045 0 1.045-.864zm.139 3.566a.883.883 0 00.317-.743q0-.971-1.347-.971h-1.763v1.961h1.793a1.629 1.629 0 001-.245z"/><path data-name="Path 22751" d="M-1165.43 4701.468h5.873v1.218h-2.228v5.764h-1.416v-5.762h-2.229z"/><path data-name="Path 22752" d="M-1157.699 4708.155a3.019 3.019 0 01-1.262-1.263 4.045 4.045 0 01-.441-1.941 3.988 3.988 0 01.441-1.931 3 3 0 011.262-1.248 4.091 4.091 0 011.942-.436 4.2 4.2 0 011.773.352 3.569 3.569 0 011.288 1l-1.08.921a2.209 2.209 0 00-.807-.684 2.481 2.481 0 00-1.134-.248 2.189 2.189 0 00-1.634.6 2.284 2.284 0 00-.594 1.674 2.362 2.362 0 00.6 1.7 2.144 2.144 0 001.629.629 2.479 2.479 0 001.134-.248 2.214 2.214 0 00.807-.683l1.08.921a3.589 3.589 0 01-1.283.986 4.242 4.242 0 01-1.777.342 4.054 4.054 0 01-1.944-.443z"/></g><g data-name="Group 1716" fill="#90c0e0"><path data-name="Path 22753" d="M-1218.184 4724.184h4.029v.256h-1.884v4.9h-.278v-4.9h-1.872z"/><path data-name="Path 22754" d="M-1212.955 4729.135a1.878 1.878 0 01-.754-.717 2.042 2.042 0 01-.27-1.053 2.02 2.02 0 01.27-1.049 1.885 1.885 0 01.754-.713 2.457 2.457 0 012.183 0 1.889 1.889 0 01.749.713 2.019 2.019 0 01.271 1.049 2.041 2.041 0 01-.271 1.053 1.883 1.883 0 01-.749.717 2.458 2.458 0 01-2.183 0zm2.043-.223a1.613 1.613 0 00.654-.625 1.914 1.914 0 000-1.835 1.614 1.614 0 00-.654-.625 2.134 2.134 0 00-1.9 0 1.617 1.617 0 00-.654.625 1.916 1.916 0 000 1.835 1.617 1.617 0 00.654.625 2.134 2.134 0 001.9 0z"/><path data-name="Path 22755" d="M-1209.007 4726.384a.436.436 0 11.212.394.436.436 0 01-.212-.394zm0 2.582a.436.436 0 11.212.394.436.436 0 01-.212-.394z"/><path data-name="Path 22756" d="M-1198.269 4726.444a1.487 1.487 0 01.618.567 1.535 1.535 0 01.212.8 1.4 1.4 0 01-.275.877 1.621 1.621 0 01-.716.53 2.583 2.583 0 01-.947.172 2.682 2.682 0 01-1.039-.186 1.55 1.55 0 01-.684-.52 1.28 1.28 0 01-.237-.764v-.1h.271v.1a1.041 1.041 0 00.2.636 1.31 1.31 0 00.585.431 2.367 2.367 0 00.892.154 2.218 2.218 0 00.841-.154 1.391 1.391 0 00.607-.453 1.167 1.167 0 00.227-.724 1.194 1.194 0 00-.446-.972 1.859 1.859 0 00-1.214-.366 1.838 1.838 0 00-.833.183l-.139-.154 2.281-2.054h-3.042v-.256h3.539v.132l-2.245 2a2 2 0 01.564-.073 2.117 2.117 0 01.98.194z"/><path data-name="Path 22757" d="M-1196.364 4728.924a1.8 1.8 0 01-.549-1.386h.278a1.531 1.531 0 00.472 1.188 1.74 1.74 0 001.188.4 1.46 1.46 0 001.144-.413 1.976 1.976 0 00.37-1.334v-3.185h.27v3.2a2.239 2.239 0 01-.435 1.532 1.737 1.737 0 01-1.349.479 2.02 2.02 0 01-1.389-.481z"/><path data-name="Path 22758" d="M-1188.77 4724.748a2.588 2.588 0 01.574 1.832 3.106 3.106 0 01-.618 2.139 2.073 2.073 0 01-1.6.676 2.234 2.234 0 01-.91-.176 1.5 1.5 0 01-.618-.471 1.026 1.026 0 01-.212-.647v-.058h.256a.931.931 0 00.187.566 1.191 1.191 0 00.526.391 2.034 2.034 0 00.779.14 1.693 1.693 0 001.452-.666 3.066 3.066 0 00.494-1.857v-.183a1.442 1.442 0 01-.7.793 2.43 2.43 0 01-1.163.274 2.36 2.36 0 01-.954-.19 1.635 1.635 0 01-.7-.563 1.508 1.508 0 01-.263-.892 1.675 1.675 0 01.245-.914 1.606 1.606 0 01.68-.6 2.267 2.267 0 01.991-.208 2.039 2.039 0 011.554.614zm-.673 2.333a1.526 1.526 0 00.636-.468 1.12 1.12 0 00.238-.713 1.37 1.37 0 00-.212-.731 1.573 1.573 0 00-.614-.559 1.965 1.965 0 00-.943-.216 1.928 1.928 0 00-.867.183 1.347 1.347 0 00-.57.515 1.463 1.463 0 00-.2.772 1.225 1.225 0 00.227.742 1.438 1.438 0 00.607.475 2.077 2.077 0 00.834.165 2.249 2.249 0 00.864-.168z"/><path data-name="Path 22759" d="M-1183.753 4727.008a1.249 1.249 0 01.369.918 1.231 1.231 0 01-.563 1.078 3.1 3.1 0 01-2.987 0 1.226 1.226 0 01-.559-1.071 1.261 1.261 0 01.362-.918 1.76 1.76 0 01.925-.486 1.264 1.264 0 01-.742-.38 1.011 1.011 0 01-.3-.724 1.08 1.08 0 01.5-.969 2.809 2.809 0 012.625 0 1.08 1.08 0 01.5.969.992.992 0 01-.307.72 1.327 1.327 0 01-.746.384 1.759 1.759 0 01.923.479zm-.388 1.807a1.006 1.006 0 00.486-.888 1.064 1.064 0 00-.223-.669 1.388 1.388 0 00-.625-.443 2.606 2.606 0 00-.935-.154 2.207 2.207 0 00-1.3.344 1.074 1.074 0 00-.487.921 1.007 1.007 0 00.483.888 2.813 2.813 0 002.6 0zm-2.439-2.669a2.126 2.126 0 001.141.26 2.1 2.1 0 001.137-.26.812.812 0 00.406-.72.857.857 0 00-.421-.775 2.531 2.531 0 00-2.248 0 .857.857 0 00-.425.775.81.81 0 00.41.722z"/><path data-name="Path 22760" d="M-1181.821 4729.27a.7.7 0 01-.344-.391 2.169 2.169 0 01-.106-.757v-2.486h-.753v-.241h.753v-1.573h.264v1.573h1.5v.241h-1.5v2.472a1.749 1.749 0 00.087.622.569.569 0 00.267.311 1.1 1.1 0 00.494.092 2.367 2.367 0 00.384-.033 2.16 2.16 0 00.333-.077v.256a1.975 1.975 0 01-.34.077 2.662 2.662 0 01-.4.033 1.468 1.468 0 01-.639-.119z"/><path data-name="Path 22761" d="M-1180.057 4724.476l1.353-.3h.219v5.163h-.278v-4.9l-1.236.278z"/><path data-name="Path 22762" d="M-1172.204 4729.364l-1.7-4.658-1.7 4.658h-.161l-1.821-5.177h.3l1.6 4.658 1.689-4.658h.183l1.675 4.665 1.616-4.665h.292l-1.814 5.177z"/><path data-name="Path 22763" d="M-1169.263 4725.875a2.024 2.024 0 01.7-.391 2.664 2.664 0 01.845-.135 2.32 2.32 0 011.071.237 1.718 1.718 0 01.724.695 2.148 2.148 0 01.259 1.079 2.233 2.233 0 01-.248 1.075 1.709 1.709 0 01-.713.709 2.283 2.283 0 01-1.093.249 2.645 2.645 0 01-.841-.131 2.078 2.078 0 01-.7-.4v1.755h-.263v-5.222h.263zm2.49 3.042a1.5 1.5 0 00.622-.621 1.956 1.956 0 00.215-.936 1.869 1.869 0 00-.226-.943 1.5 1.5 0 00-.636-.6 2.036 2.036 0 00-.936-.208 2.459 2.459 0 00-.848.146 1.791 1.791 0 00-.68.431v2.384a1.762 1.762 0 00.673.425 2.49 2.49 0 00.855.146 2 2 0 00.961-.226z"/><path data-name="Path 22764" d="M-1161.225 4724.444h-3.122v2.274h2.669v.249h-2.669v2.12h3.276v.256h-3.544v-5.156h3.393z"/><path data-name="Path 22765" d="M-1160.443 4729.344v-.132l3.59-4.768h-3.342v-.256h3.773v.132l-3.6 4.768h3.649v.256z"/><path data-name="Path 22766" d="M-1154.797 4729.344h-.307l2.676-4.9h-3.327v-.256h3.678v.161z"/><path data-name="Path 22767" d="M-1148.49 4726.444a1.486 1.486 0 01.618.567 1.534 1.534 0 01.212.8 1.4 1.4 0 01-.274.877 1.621 1.621 0 01-.717.53 2.583 2.583 0 01-.947.172 2.683 2.683 0 01-1.038-.186 1.551 1.551 0 01-.684-.52 1.284 1.284 0 01-.237-.764v-.1h.271v.1a1.042 1.042 0 00.2.636 1.31 1.31 0 00.585.431 2.37 2.37 0 00.892.154 2.224 2.224 0 00.841-.154 1.392 1.392 0 00.606-.453 1.166 1.166 0 00.227-.724 1.194 1.194 0 00-.446-.972 2.112 2.112 0 00-2.047-.183l-.139-.154 2.281-2.054h-3.044v-.256h3.539v.132l-2.245 2a2 2 0 01.564-.073 2.115 2.115 0 01.982.194z"/><path data-name="Path 22768" d="M-1145.702 4729.068a2.247 2.247 0 01-.925-.929 2.937 2.937 0 01-.326-1.415 2.842 2.842 0 01.322-1.39 2.145 2.145 0 01.922-.892 3.073 3.073 0 011.418-.307 3 3 0 011.262.256 2.675 2.675 0 01.947.717l-.219.183a2.387 2.387 0 00-.849-.651 2.678 2.678 0 00-1.141-.234 2.738 2.738 0 00-1.265.274 1.928 1.928 0 00-.823.8 2.54 2.54 0 00-.289 1.247 2.669 2.669 0 00.289 1.269 2 2 0 00.826.837 2.6 2.6 0 001.261.292 2.716 2.716 0 001.141-.23 2.352 2.352 0 00.849-.647l.219.183a2.636 2.636 0 01-.947.713 3.033 3.033 0 01-1.262.252 2.915 2.915 0 01-1.41-.328z"/><path data-name="Path 22769" d="M-1137.073 4729.344l-3.773-4.644v4.644h-.27v-5.156h.183l3.773 4.636v-4.636h.271v5.156z"/><path data-name="Path 22770" d="M-1129.791 4725.735a1.881 1.881 0 01.359 1.294v2.311h-.256v-2.311a1.584 1.584 0 00-.307-1.1 1.219 1.219 0 00-.928-.325 2.246 2.246 0 00-.819.143 3.189 3.189 0 00-.7.384 2.59 2.59 0 01.131.9v2.311h-.256v-2.311a1.612 1.612 0 00-.3-1.1 1.186 1.186 0 00-.914-.325 2.146 2.146 0 00-.819.15 3.442 3.442 0 00-.709.4v3.189h-.264v-3.95h.264v.5a2.942 2.942 0 01.724-.4 2.316 2.316 0 01.833-.153 1.779 1.779 0 01.754.143 1.021 1.021 0 01.475.449 2.5 2.5 0 01.732-.428 2.458 2.458 0 01.9-.164 1.435 1.435 0 011.1.393z"/><path data-name="Path 22771" d="M-1123.332 4727.918a2.311 2.311 0 01-.651.874l.5.424-.153.183-.548-.461a2.909 2.909 0 01-1.638.453 2.984 2.984 0 01-1.4-.318 2.341 2.341 0 01-.958-.914 2.723 2.723 0 01-.348-1.393 2.781 2.781 0 01.329-1.36 2.325 2.325 0 01.943-.936 2.935 2.935 0 011.433-.336 3.012 3.012 0 011.4.318 2.336 2.336 0 01.962.914 2.731 2.731 0 01.348 1.4 2.871 2.871 0 01-.219 1.152zm-1.075.83l-.468-.4.154-.183.519.438a2.081 2.081 0 00.6-.782 2.564 2.564 0 00.208-1.053 2.523 2.523 0 00-.292-1.224 2.069 2.069 0 00-.841-.838 2.882 2.882 0 00-2.537-.011 2.122 2.122 0 00-.859.823 2.44 2.44 0 00-.311 1.25 2.508 2.508 0 00.293 1.218 2.055 2.055 0 00.841.837 2.881 2.881 0 002.7-.073z"/><path data-name="Path 22772" d="M-1120.859 4729.352l-1.872-3.956h.307l1.653 3.546 1.645-3.546h.3l-1.872 3.956z"/><path data-name="Path 22773" d="M-1118.169 4724.55a.273.273 0 010-.387.265.265 0 01.19-.077.271.271 0 110 .541.266.266 0 01-.19-.077zm.314 4.786h-.263v-3.942h.263z"/><path data-name="Path 22774" d="M-1116.314 4728.355a1.594 1.594 0 00.644.578 1.981 1.981 0 00.9.2 2.227 2.227 0 00.932-.168 1.727 1.727 0 00.625-.5l.2.161a1.919 1.919 0 01-.709.567 2.519 2.519 0 01-1.06.194 2.211 2.211 0 01-1.086-.26 1.806 1.806 0 01-.728-.724 2.148 2.148 0 01-.256-1.057 2.057 2.057 0 01.256-1.031 1.842 1.842 0 01.717-.713 2.237 2.237 0 012.091 0 1.781 1.781 0 01.7.716 2.171 2.171 0 01.245 1.042v.095h-3.736a1.77 1.77 0 00.265.9zm.622-2.548a1.619 1.619 0 00-.622.574 1.679 1.679 0 00-.256.837h3.458a1.834 1.834 0 00-.248-.837 1.528 1.528 0 00-.6-.574 1.823 1.823 0 00-.878-.2 1.8 1.8 0 00-.846.2z"/><path data-name="Path 22775" d="M-1111.149 4729.135a1.784 1.784 0 01-.743-.709 2.1 2.1 0 01-.259-1.057 2.054 2.054 0 01.27-1.06 1.831 1.831 0 01.76-.713 2.423 2.423 0 011.126-.252 2.1 2.1 0 01.859.179 1.843 1.843 0 01.669.487l-.19.175a1.649 1.649 0 00-.588-.424 1.823 1.823 0 00-.749-.161 2.1 2.1 0 00-.98.219 1.615 1.615 0 00-.662.621 1.792 1.792 0 00-.238.929 1.858 1.858 0 00.227.929 1.528 1.528 0 00.644.618 2.087 2.087 0 00.972.216 2.035 2.035 0 00.8-.165 1.626 1.626 0 00.621-.442l.19.183a1.866 1.866 0 01-.7.5 2.316 2.316 0 01-.914.183 2.378 2.378 0 01-1.115-.256z"/><path data-name="Path 22776" d="M-1107.185 4726.365a1.662 1.662 0 01.523-.742 1.286 1.286 0 01.823-.274 1.406 1.406 0 01.607.124v.3a1.941 1.941 0 00-.318-.117 1.279 1.279 0 00-.318-.037 1.114 1.114 0 00-.68.223 1.475 1.475 0 00-.468.607 2.1 2.1 0 00-.168.852v2.04h-.263v-3.946h.263z"/><path data-name="Path 22777" d="M-1104.182 4725.895a3.32 3.32 0 01.79-.38 2.71 2.71 0 01.885-.168 1.582 1.582 0 011.177.384 1.833 1.833 0 01.373 1.3v2.311h-.256v-2.311a1.545 1.545 0 00-.318-1.1 1.364 1.364 0 00-1.005-.322 2.6 2.6 0 00-.881.161 3.09 3.09 0 00-.764.387v3.189h-.263v-3.951h.263z"/><path data-name="Path 22778" d="M-1098.592 4730.302a1.242 1.242 0 01-.516.318 2.144 2.144 0 01-.548.066 3.241 3.241 0 01-.717-.088v-.271a2.438 2.438 0 00.724.11 1.233 1.233 0 00.768-.223 1.886 1.886 0 00.527-.771l.044-.1h-.271l-1.835-3.942h.3l1.7 3.693h.212l1.572-3.693h.285l-1.755 4.124a2.265 2.265 0 01-.49.777z"/><path data-name="Path 22779" d="M-1095.702 4724.55a.273.273 0 010-.387.265.265 0 01.19-.077.271.271 0 110 .541.265.265 0 01-.19-.077zm.314 4.786h-.263v-3.942h.263z"/><path data-name="Path 22780" d="M-1089.281 4729.364l-1.7-4.658-1.7 4.658h-.161l-1.821-5.177h.3l1.6 4.658 1.689-4.658h.183l1.675 4.665 1.616-4.665h.292l-1.814 5.177z"/><path data-name="Path 22781" d="M-1086.34 4726.365a1.662 1.662 0 01.523-.742 1.286 1.286 0 01.822-.274 1.405 1.405 0 01.607.124v.3a1.935 1.935 0 00-.318-.117 1.274 1.274 0 00-.318-.037 1.112 1.112 0 00-.68.223 1.471 1.471 0 00-.468.607 2.093 2.093 0 00-.168.852v2.04h-.263v-3.946h.263z"/><path data-name="Path 22782" d="M-1083.327 4725.895a3.315 3.315 0 01.79-.38 2.713 2.713 0 01.885-.168 1.581 1.581 0 011.177.384 1.833 1.833 0 01.373 1.3v2.311h-.256v-2.311a1.542 1.542 0 00-.318-1.1 1.364 1.364 0 00-1.005-.322 2.6 2.6 0 00-.881.161 3.074 3.074 0 00-.764.387v3.189h-.264v-3.951h.264z"/><path data-name="Path 22783" d="M-1077.184 4729.395a2.282 2.282 0 01-1.093-.249 1.7 1.7 0 01-.713-.709 2.222 2.222 0 01-.249-1.075 2.128 2.128 0 01.263-1.079 1.742 1.742 0 01.728-.695 2.318 2.318 0 011.071-.237 2.661 2.661 0 01.845.135 2.026 2.026 0 01.7.391v-.475h.256v5.221h-.256v-1.755a2.266 2.266 0 01-1.552.527zm.874-.4a1.834 1.834 0 00.676-.425v-2.384a1.79 1.79 0 00-.68-.431 2.47 2.47 0 00-.849-.146 2.034 2.034 0 00-.936.208 1.529 1.529 0 00-.64.6 1.84 1.84 0 00-.23.943 1.927 1.927 0 00.219.936 1.522 1.522 0 00.625.621 1.979 1.979 0 00.954.219 2.483 2.483 0 00.867-.151z"/><path data-name="Path 22784" d="M-1072.292 4727.544h-1.543v1.792h-.278v-5.156h1.916a2 2 0 011.375.42 1.561 1.561 0 01.468 1.225 1.724 1.724 0 01-.318 1.075 1.577 1.577 0 01-.918.563l1.375 1.872h-.344l-1.323-1.814a3.745 3.745 0 01-.41.023zm1.221-.633a1.376 1.376 0 00.424-1.086 1.319 1.319 0 00-.4-1.035 1.712 1.712 0 00-1.177-.354h-1.616v2.852h1.535a1.794 1.794 0 001.233-.374z"/><path data-name="Path 22785" d="M-1069.449 4729.236a.273.273 0 010-.387.266.266 0 01.19-.077.271.271 0 110 .541.266.266 0 01-.19-.077z"/><path data-name="Path 22786" d="M-1068.114 4729.236a.274.274 0 010-.387.279.279 0 01.384 0 .271.271 0 01-.194.464.266.266 0 01-.19-.077z"/><path data-name="Path 22787" d="M-1066.779 4729.236a.273.273 0 010-.387.266.266 0 01.19-.077.271.271 0 110 .541.266.266 0 01-.19-.077z"/></g><g data-name="Group 1717" fill="#90c0e0"><path data-name="Path 22788" d="M-1142.12 4715.332a15.508 15.508 0 01-2.843-.98l1.05-2.417a11.048 11.048 0 004.774 1.208 3.309 3.309 0 001.832-.426 1.393 1.393 0 00.644-1.238 1.252 1.252 0 00-.693-1.139 8.706 8.706 0 00-2.258-.683 13.844 13.844 0 01-2.793-.822 4.227 4.227 0 01-1.733-1.317 3.506 3.506 0 01-.624-2.16 3.847 3.847 0 011.347-3.1 5.893 5.893 0 013.9-1.139 12.039 12.039 0 015.249 1.089l-1.149 2.338a10.453 10.453 0 00-4.1-.891 3.076 3.076 0 00-1.763.426 1.288 1.288 0 00-.615 1.1 1.237 1.237 0 00.793 1.159 12.075 12.075 0 002.615.763 12.78 12.78 0 012.555.763 3.743 3.743 0 011.594 1.278 3.639 3.639 0 01.584 2.139 3.986 3.986 0 01-1.328 3.258 6.023 6.023 0 01-3.921 1.1 14.048 14.048 0 01-3.117-.309z"/><path data-name="Path 22789" d="M-1121.463 4710.807h-8.32a2.919 2.919 0 001.03 1.852 3.343 3.343 0 002.139.644 4.31 4.31 0 001.743-.347 3.589 3.589 0 001.347-1.02l1.7 1.445a5.734 5.734 0 01-4.991 2.2 6.418 6.418 0 01-3.051-.683 4.681 4.681 0 01-1.971-1.951 6.164 6.164 0 01-.683-2.971 5.986 5.986 0 01.7-2.951 4.9 4.9 0 011.971-1.961 5.929 5.929 0 012.892-.693 5.289 5.289 0 014.09 1.535 5.824 5.824 0 011.416 4.11zm-7.31-3.635a2.7 2.7 0 00-.99 1.673h5.666a2.569 2.569 0 00-.852-1.6 2.911 2.911 0 00-2-.634 2.947 2.947 0 00-1.824.566z"/><path data-name="Path 22790" d="M-1116.796 4705.407a7.52 7.52 0 011.8-.743 7.252 7.252 0 011.941-.287 4.745 4.745 0 012.248.446 2.574 2.574 0 011.189 1.426 7.9 7.9 0 01.366 2.684v6.438h-2.694v-6.024a3.061 3.061 0 00-.485-1.971 2.03 2.03 0 00-1.615-.565 4.4 4.4 0 00-2.655.852v7.705h-2.705v-10.756h2.615z"/><path data-name="Path 22791" d="M-1105.652 4714.764a4.042 4.042 0 01-.763-2.724v-5.19h-1.545v-2.239h1.545v-4.179h2.674v4.179h3.09v2.239h-3.09v4.734a2.157 2.157 0 00.307 1.317 1.362 1.362 0 001.119.386 5.873 5.873 0 001.644-.218v2.179a4.764 4.764 0 01-1.03.267 8.8 8.8 0 01-1.446.109 3.2 3.2 0 01-2.5-.86z"/></g><path data-name="Path 22792" d="M-1226.265 4670.974l-10.32 12.327a1.727 1.727 0 01-2.739 0l-10.319-12.327c-.753-.9-.41-1.635.764-1.635h7.557v-11.561a2.139 2.139 0 012.133-2.133h2.469a2.139 2.139 0 012.133 2.133v11.561h7.558c1.174-.005 1.517.735.764 1.635z" fill="#90c0e0"/><path data-name="Path 22793" d="M-1226.265 4713.989l-10.32-12.327a1.727 1.727 0 00-2.739 0l-10.319 12.327c-.753.9-.41 1.635.764 1.635h7.557v11.562a2.139 2.139 0 002.133 2.133h2.469a2.139 2.139 0 002.133-2.133v-11.562h7.558c1.174.005 1.517-.735.764-1.635z" fill="#90c0e0"/></g></g></g></g></svg>